STARTFONT 2.1
FONT -FontForge-ITC Benguiat Gothic Std-Medium-R-Normal--64-610-75-75-P-331-ISO8859-1
SIZE 61 75 75
FONTBOUNDINGBOX 75 75 -11 -16
COMMENT "Generated by fontforge, http://fontforge.sourceforge.net"
COMMENT "Copyright 1990, 1995 , 2002Adobe Systems Incorporated. All Rights Reserved. ITC Benguiat Gothic is a registered trademark of International Typeface Corporation."
STARTPROPERTIES 40
FOUNDRY "FontForge"
FAMILY_NAME "ITC Benguiat Gothic Std"
WEIGHT_NAME "Medium"
SLANT "R"
SETWIDTH_NAME "Normal"
ADD_STYLE_NAME ""
PIXEL_SIZE 64
POINT_SIZE 610
RESOLUTION_X 75
RESOLUTION_Y 75
SPACING "P"
AVERAGE_WIDTH 331
CHARSET_REGISTRY "ISO8859"
CHARSET_ENCODING "1"
FONTNAME_REGISTRY ""
CHARSET_COLLECTIONS "ISOLatin1Encoding"
FONT_NAME "BenguiatGothicStd-Medium"
FACE_NAME "ITC Benguiat Gothic Std Medium"
COPYRIGHT "Copyright 1990, 1995 , 2002Adobe Systems Incorporated. All Rights Reserved. ITC Benguiat Gothic is a registered trademark of International Typeface Corporation."
FONT_VERSION "001.001"
FONT_ASCENT 44
FONT_DESCENT 20
UNDERLINE_POSITION -6
UNDERLINE_THICKNESS 4
X_HEIGHT 32
CAP_HEIGHT 43
RAW_ASCENT 691
RAW_DESCENT 309
NORM_SPACE 20
RELATIVE_WEIGHT 50
RELATIVE_SETWIDTH 50
SUPERSCRIPT_X 0
SUPERSCRIPT_Y 22
SUPERSCRIPT_SIZE 38
SUBSCRIPT_X 0
SUBSCRIPT_Y 4
SUBSCRIPT_SIZE 38
FIGURE_WIDTH 39
AVG_LOWERCASE_WIDTH 319
AVG_UPPERCASE_WIDTH 386
ENDPROPERTIES
CHARS 253
STARTCHAR space
ENCODING 32
SWIDTH 305 0
DWIDTH 20 0
BBX 1 1 0 0
BITMAP
00
ENDCHAR
STARTCHAR exclam
ENCODING 33
SWIDTH 278 0
DWIDTH 18 0
BBX 6 45 6 -1
BITMAP
78
FC
FC
FC
FC
FC
FC
FC
FC
FC
FC
FC
FC
FC
FC
FC
FC
FC
FC
FC
FC
FC
FC
FC
F8
F8
F8
F8
F8
F8
F8
78
78
00
00
00
00
00
78
FC
FC
FC
FC
FC
78
ENDCHAR
STARTCHAR quotedbl
ENCODING 34
SWIDTH 333 0
DWIDTH 21 0
BBX 15 17 3 28
BITMAP
781C
783E
FC3E
FC3E
FC3E
FC3E
FC3E
FC3E
FC3E
FC3E
FC3E
FC3E
FC3E
FC3E
FC3E
783E
381C
ENDCHAR
STARTCHAR numbersign
ENCODING 35
SWIDTH 611 0
DWIDTH 39 0
BBX 31 44 4 0
BITMAP
003E01E0
003E03E0
003E03E0
003E03E0
003C03E0
003C03E0
003C03C0
007C03C0
007C07C0
007C07C0
007C07C0
007807C0
007807C0
3FFFFFFE
3FFFFFFE
3FFFFFFE
3FFFFFFE
00F80F80
00F00F80
00F00F80
00F00F00
01F00F00
01F00F00
01F01F00
01F01F00
01F01F00
01E01F00
FFFFFFF8
FFFFFFF8
FFFFFFF8
FFFFFFF8
03E03E00
03E03E00
03C03E00
03C03C00
03C03C00
07C03C00
07C07C00
07C07C00
07C07C00
07807C00
07807800
0F807800
0F807800
ENDCHAR
STARTCHAR dollar
ENCODING 36
SWIDTH 611 0
DWIDTH 39 0
BBX 29 52 3 -4
BITMAP
001E0000
001F0000
001F0000
001F0000
001F0000
001F0000
001F0000
001F0000
07FFFF00
1FFFFF80
3FFFFF80
7FFFFF80
7FFFFF00
7C000000
7C000000
7C000000
7E000000
7FC00000
7FFF0000
3FFFF800
1FFFFF00
03FFFFC0
003FFFE0
001F7FF0
001F07F0
001F03F8
001F01F8
001F01F8
001F00F8
001F00F8
001F00F8
001F00F8
001F00F8
001F01F8
001F01F8
001F03F0
001F07F0
001F0FE0
001F3FE0
7FFFFFC0
FFFFFF80
FFFFFE00
FFFFF800
7FFFE000
001F0000
001F0000
001F0000
001F0000
001F0000
001F0000
001F0000
000E0000
ENDCHAR
STARTCHAR percent
ENCODING 37
SWIDTH 833 0
DWIDTH 53 0
BBX 47 46 3 -1
BITMAP
00FC0000E000
03FF0001E000
0FFF8001E000
1FFFC003E000
3FFFE003E000
3F07F007C000
7E03F007C000
7C01F00F8000
7C00F80F8000
7800F81F0000
F800F81F0000
F800F83E0000
F800F83E0000
7C00F87E0000
7C01F87C0000
7C01F07C0000
3E03F0F80000
3F87E0F80000
1FFFE1F00000
0FFFC1F00000
07FF83E00000
03FE03E00000
003007C00000
000007C00800
00000F80FF80
00000F81FFE0
00001F07FFF0
00001F07FFF8
00001F0FC1F8
00003E1F80FC
00003E1F007C
00007C1F007C
00007C3E003E
0000F83E003E
0000F83E003E
0001F03E003E
0001F03E003E
0003E01F007E
0003E01F007C
0007C01F80FC
0007C00FC1F8
000FC00FFFF8
000F8007FFF0
000F8003FFE0
000F0001FFC0
000E00007F00
ENDCHAR
STARTCHAR ampersand
ENCODING 38
SWIDTH 778 0
DWIDTH 50 0
BBX 44 46 4 -1
BITMAP
0007F0000000
003FFC000000
007FFF000000
00FFFF800000
01FFFF800000
03FE3FC00000
03F00FC00000
07F007E00000
07E007E00000
07E003E00000
07C003E06000
07C003E0F000
07E003E1F000
07E007E1F000
03F007E0F800
03F00FC0F800
01F80FC0F800
03FC1F80F800
0FFF7F80FC00
0FFFFF00FC00
1FFFFE007C00
3F9FFC007C00
7F0FF8007C00
7E07FC007C00
7C01FE007C00
FC00FF00FC00
FC007F80FC00
F8003FE0F800
F8001FF0F800
F80007F9F800
F80003FDF000
FC0001FFF000
FC0000FFF000
FC00007FE000
FE00001FE000
FE00000FF000
7F00001FF800
7F80003FFE00
3FC000FFFF00
1FE003FE7F80
1FFC1FFC3FC0
0FFFFFF81FE0
07FFFFF00FF0
01FFFFC007F0
007FFF0003F0
000FF80000E0
ENDCHAR
STARTCHAR quotesingle
ENCODING 39
SWIDTH 222 0
DWIDTH 14 0
BBX 6 17 4 28
BITMAP
78
78
FC
FC
FC
FC
FC
FC
FC
FC
FC
FC
FC
FC
FC
78
38
ENDCHAR
STARTCHAR parenleft
ENCODING 40
SWIDTH 389 0
DWIDTH 25 0
BBX 16 59 5 -14
BITMAP
0006
001F
003F
007F
00FE
00FC
01F8
03F0
03F0
07E0
0FC0
0FC0
1F80
1F80
3F00
3F00
3E00
7E00
7E00
7C00
7C00
FC00
FC00
FC00
F800
F800
F800
F800
F800
F800
F800
F800
F800
F800
F800
FC00
FC00
FC00
7C00
7C00
7E00
7E00
3E00
3F00
3F00
1F80
1F80
0FC0
0FC0
07E0
07F0
03F0
01F8
01FC
00FE
007E
003F
001F
0006
ENDCHAR
STARTCHAR parenright
ENCODING 41
SWIDTH 389 0
DWIDTH 25 0
BBX 16 59 4 -14
BITMAP
6000
F800
FC00
FE00
7E00
3F00
1F80
1FC0
0FC0
07E0
03E0
03F0
01F0
01F8
00F8
00FC
00FC
007C
007E
007E
003E
003E
003F
003F
003F
001F
001F
001F
001F
001F
001F
001F
001F
001F
003F
003F
003F
003F
003E
007E
007E
007C
007C
00FC
00F8
01F8
01F8
03F0
03F0
07E0
0FC0
0FC0
1F80
3F00
7F00
FE00
FC00
F800
E000
ENDCHAR
STARTCHAR asterisk
ENCODING 42
SWIDTH 333 0
DWIDTH 21 0
BBX 17 19 2 25
BITMAP
01C000
01C000
01E000
01E000
71C380
F9CF80
FFDF80
7FFF00
1FFC00
07F000
3FFE00
7FFF00
FDDF80
F9CF80
61C300
01E000
01E000
01C000
01C000
ENDCHAR
STARTCHAR plus
ENCODING 43
SWIDTH 600 0
DWIDTH 38 0
BBX 32 33 3 0
BITMAP
0003E000
0003E000
0003E000
0003E000
0003E000
0003E000
0003E000
0003E000
0003E000
0003E000
0003E000
0003E000
0003E000
0003E000
FFFFFFFF
FFFFFFFF
FFFFFFFF
FFFFFFFF
FFFFFFFF
0003E000
0003E000
0003E000
0003E000
0003E000
0003E000
0003E000
0003E000
0003E000
0003E000
0003E000
0003E000
0003E000
0003E000
ENDCHAR
STARTCHAR comma
ENCODING 44
SWIDTH 305 0
DWIDTH 20 0
BBX 10 17 3 -8
BITMAP
0380
07C0
0FC0
0FC0
0FC0
1FC0
1F80
1F80
3F00
3F00
3E00
7E00
7C00
FC00
F800
F800
7000
ENDCHAR
STARTCHAR hyphen
ENCODING 45
SWIDTH 333 0
DWIDTH 21 0
BBX 15 5 3 14
BITMAP
7FFC
FFFE
FFFE
FFFE
7FFC
ENDCHAR
STARTCHAR period
ENCODING 46
SWIDTH 305 0
DWIDTH 20 0
BBX 6 7 7 -1
BITMAP
78
F8
FC
FC
FC
F8
78
ENDCHAR
STARTCHAR slash
ENCODING 47
SWIDTH 278 0
DWIDTH 18 0
BBX 22 46 -2 -1
BITMAP
000038
00007C
00007C
0000FC
0000F8
0001F8
0001F0
0001F0
0003F0
0003E0
0007E0
0007C0
000FC0
000FC0
000F80
001F80
001F00
003F00
003F00
003E00
007E00
007C00
00FC00
00F800
00F800
01F800
01F000
03F000
03E000
07E000
07E000
07C000
0FC000
0F8000
1F8000
1F0000
1F0000
3F0000
3E0000
7E0000
7C0000
FC0000
FC0000
F80000
F80000
700000
ENDCHAR
STARTCHAR zero
ENCODING 48
SWIDTH 611 0
DWIDTH 39 0
BBX 35 46 2 -1
BITMAP
0003F80000
001FFF0000
003FFF8000
00FFFFC000
01FFFFF000
01FF1FF000
03F803F800
07F001FC00
0FE000FE00
0FC0007E00
1F80003F00
1F80003F00
3F00001F80
3F00001F80
3E00001F80
7E00000FC0
7E00000FC0
7E00000FC0
7C000007C0
7C000007C0
7C000007C0
FC000007E0
FC000007E0
FC000007E0
FC000007E0
FC000007C0
7C000007C0
7C000007C0
7E00000FC0
7E00000FC0
7E00000FC0
3E00001F80
3F00001F80
3F00001F80
1F80003F00
1F80003F00
0FC0007E00
0FE000FE00
07F001FC00
03F803F800
01FF1FF000
01FFFFF000
00FFFFC000
003FFF8000
000FFF0000
0003F80000
ENDCHAR
STARTCHAR one
ENCODING 49
SWIDTH 611 0
DWIDTH 39 0
BBX 23 45 9 0
BITMAP
003C00
00FC00
1FFE00
7FFE00
FFFE00
FFFE00
7FFE00
007E00
007E00
007E00
007E00
007E00
007E00
007E00
007E00
007E00
007E00
007E00
007E00
007E00
007E00
007E00
007E00
007E00
007E00
007E00
007E00
007E00
007E00
007E00
007E00
007E00
007E00
007E00
007E00
007E00
007E00
007E00
007E00
007E00
7FFFFE
FFFFFE
FFFFFE
FFFFFE
7FFFFC
ENDCHAR
STARTCHAR two
ENCODING 50
SWIDTH 611 0
DWIDTH 39 0
BBX 30 44 4 0
BITMAP
3FFFF800
7FFFFF00
7FFFFF80
7FFFFFC0
3FFFFFE0
00003FE0
000007F0
000003F0
000003F0
000001F8
000001F8
000001F8
000001F8
000003F8
000003F0
000003F0
000007F0
00000FE0
00003FC0
0000FFC0
0001FF80
0007FF00
000FFC00
003FF800
007FF000
01FFC000
03FF0000
0FFC0000
1FF80000
1FE00000
3FC00000
7F800000
7F000000
7E000000
FC000000
FC000000
FC000000
FC000000
FC000000
FFFFFFFC
FFFFFFFC
FFFFFFFC
7FFFFFFC
3FFFFFF8
ENDCHAR
STARTCHAR three
ENCODING 51
SWIDTH 611 0
DWIDTH 39 0
BBX 31 44 4 0
BITMAP
7FFFFF80
FFFFFFC0
FFFFFFC0
FFFFFFC0
7FFFFFC0
0000FF80
0001FE00
0007FC00
000FF000
001FE000
007F8000
00FF0000
03FC0000
07FFC000
0FFFFC00
0FFFFF00
0FFFFF80
07FFFFC0
00007FE0
00001FF0
000007F8
000003F8
000001FC
000000FC
000000FC
0000007C
0000007E
0000007E
0000007E
0000007E
0000007E
0000007C
000000FC
000000FC
000001FC
000003F8
000007F8
00000FF0
00007FE0
FFFFFFE0
FFFFFF80
FFFFFF00
FFFFFC00
7FFFC000
ENDCHAR
STARTCHAR four
ENCODING 52
SWIDTH 611 0
DWIDTH 39 0
BBX 34 45 3 0
BITMAP
0000078000
00003FC000
00007FC000
0001FFC000
0003FFC000
0007FFC000
000FFFC000
001FE7C000
003FC7C000
007F07C000
00FE07C000
01FC07C000
01F807C000
03F007C000
07F007C000
07E007C000
0FC007C000
0FC007C000
1F8007C000
1F0007C000
3F0007C000
3F0007C000
7E0007C000
7E0007C000
7C0007C000
7C0007C000
FC0007C000
FC0007C000
FC0007C000
FFFFFFFF00
FFFFFFFF80
FFFFFFFFC0
FFFFFFFF80
7FFFFFFF80
000007C000
000007C000
000007C000
000007C000
000007C000
000007C000
000007C000
000007C000
000007C000
000007C000
0000038000
ENDCHAR
STARTCHAR five
ENCODING 53
SWIDTH 611 0
DWIDTH 39 0
BBX 33 44 3 0
BITMAP
07FFFFE000
0FFFFFF000
0FFFFFF000
1FFFFFF000
1FFFFFE000
1F80000000
1F80000000
1F80000000
1F80000000
1F80000000
1F80000000
3FFFE00000
3FFFFC0000
3FFFFF0000
3FFFFFC000
1FFFFFE000
0000FFF000
00000FF800
000003FC00
000001FE00
000000FE00
0000007F00
0000003F00
0000003F00
0000001F80
0000001F80
0000001F80
0000001F80
0000001F80
0000001F80
0000001F80
0000001F80
0000003F00
0000003F00
0000007F00
000000FE00
000001FE00
000007FC00
00003FF800
7FFFFFF000
FFFFFFE000
FFFFFFC000
7FFFFF0000
3FFFF80000
ENDCHAR
STARTCHAR six
ENCODING 54
SWIDTH 611 0
DWIDTH 39 0
BBX 34 45 3 -1
BITMAP
0007FFFE00
003FFFFF00
00FFFFFF00
01FFFFFF00
03FFFFFE00
07FF000000
0FF8000000
1FE0000000
1FC0000000
3F80000000
3F00000000
7F00000000
7E00000000
7E03FC0000
7E0FFF8000
FC3FFFE000
FC7FFFF800
FCFFFFFC00
FDFE0FFE00
FFF801FE00
FFE000FF00
FFC0007F00
FF80003F80
FF00001F80
FF00001FC0
FF00000FC0
FE00000FC0
FE00000FC0
FE00000FC0
FE00000FC0
FE00000FC0
7E00000FC0
7F00000FC0
7F00001F80
3F00001F80
3F80003F80
1FC0007F00
1FE000FF00
0FF001FE00
07FE0FFC00
07FFFFF800
01FFFFF000
00FFFFC000
003FFF8000
0007F80000
ENDCHAR
STARTCHAR seven
ENCODING 55
SWIDTH 611 0
DWIDTH 39 0
BBX 28 44 5 0
BITMAP
7FFFFFC0
FFFFFFE0
FFFFFFE0
FFFFFFE0
7FFFFFE0
000003F0
000003E0
000003E0
000007E0
000007E0
000007C0
00000FC0
00000FC0
00001F80
00003F80
00003F00
00007E00
0000FE00
0000FC00
0001FC00
0003F800
0003F000
0007F000
000FE000
000FC000
001FC000
003F8000
003F0000
007F0000
007E0000
00FE0000
00FC0000
01FC0000
01F80000
01F80000
01F80000
03F00000
03F00000
03F00000
03F00000
03F00000
03F00000
01E00000
01E00000
ENDCHAR
STARTCHAR eight
ENCODING 56
SWIDTH 611 0
DWIDTH 39 0
BBX 33 46 3 -1
BITMAP
000FF80000
007FFF0000
01FFFFC000
03FFFFE000
07FFFFF000
0FF80FF800
1FE003F800
1FC001FC00
3F8000FC00
3F0000FC00
3F00007E00
3F00007E00
3F00007E00
3F0000FC00
3F8000FC00
1F8001FC00
1FE003F800
0FF00FF000
07FFFFF000
03FFFFC000
01FFFFC000
03FFFFE000
0FFFFFF800
1FF80FFC00
3FC001FE00
3F8000FE00
7F00007F00
7E00003F00
FC00001F80
FC00001F80
FC00001F80
FC00001F80
FC00001F80
FC00001F80
FC00001F80
FC00001F80
7E00003F00
7F00007F00
3F0000FE00
3FC001FE00
1FF007FC00
0FFFFFF800
07FFFFF000
03FFFFE000
00FFFF8000
000FF80000
ENDCHAR
STARTCHAR nine
ENCODING 57
SWIDTH 611 0
DWIDTH 39 0
BBX 34 45 2 0
BITMAP
0007F80000
003FFF0000
00FFFFC000
03FFFFE000
07FFFFF800
0FFC1FF800
1FF007FC00
1FC001FE00
3F8000FF00
7F00007F00
7E00003F00
7E00003F80
FC00003F80
FC00001F80
FC00001FC0
FC00001FC0
FC00001FC0
FC00001FC0
FC00001FC0
FC00003FC0
FE00003FC0
7E00003FC0
7F00007FC0
3F8000FFC0
3FC001FFC0
1FE007FFC0
1FFC1FEFC0
0FFFFFCFC0
07FFFF8FC0
01FFFF0FC0
007FFC0FC0
000FF01F80
0000001F80
0000003F80
0000003F00
0000007F00
000000FE00
000001FE00
000003FC00
00003FF800
1FFFFFF000
3FFFFFE000
3FFFFFC000
1FFFFF0000
1FFFF80000
ENDCHAR
STARTCHAR colon
ENCODING 58
SWIDTH 305 0
DWIDTH 20 0
BBX 6 27 7 -1
BITMAP
70
F8
FC
FC
FC
F8
78
00
00
00
00
00
00
00
00
00
00
00
00
00
78
F8
FC
FC
FC
F8
78
ENDCHAR
STARTCHAR semicolon
ENCODING 59
SWIDTH 305 0
DWIDTH 20 0
BBX 11 34 2 -8
BITMAP
03C0
07E0
07E0
07E0
07E0
07E0
03C0
0000
0000
0000
0000
0000
0000
0000
0000
0000
0000
0380
07C0
07E0
07E0
0FC0
0FC0
1F80
1F80
1F80
3F00
3F00
3E00
7E00
7C00
FC00
7800
7800
ENDCHAR
STARTCHAR less
ENCODING 60
SWIDTH 600 0
DWIDTH 38 0
BBX 32 33 3 0
BITMAP
00000001
00000007
0000001F
000000FF
000003FF
00000FFF
00003FFC
0001FFE0
0007FF80
001FFE00
00FFF000
03FFC000
0FFF0000
3FFC0000
FFE00000
FF800000
FE000000
FF800000
FFE00000
3FF80000
0FFF0000
03FFC000
00FFF000
001FFE00
0007FF80
0001FFE0
00003FFC
00000FFF
000003FF
000000FF
0000001F
00000007
00000001
ENDCHAR
STARTCHAR equal
ENCODING 61
SWIDTH 600 0
DWIDTH 38 0
BBX 32 18 3 7
BITMAP
FFFFFFFF
FFFFFFFF
FFFFFFFF
FFFFFFFF
FFFFFFFF
00000000
00000000
00000000
00000000
00000000
00000000
00000000
00000000
FFFFFFFF
FFFFFFFF
FFFFFFFF
FFFFFFFF
FFFFFFFF
ENDCHAR
STARTCHAR greater
ENCODING 62
SWIDTH 600 0
DWIDTH 38 0
BBX 32 33 3 0
BITMAP
80000000
E0000000
FC000000
FF000000
FFC00000
FFF80000
1FFE0000
07FF8000
01FFE000
003FFC00
000FFF00
0003FFC0
00007FF8
00001FFE
000007FF
000000FF
0000003F
000000FF
000007FF
00001FFE
00007FF8
0003FFC0
000FFF00
003FFC00
01FFE000
07FF8000
1FFE0000
FFF80000
FFC00000
FF000000
FC000000
E0000000
80000000
ENDCHAR
STARTCHAR question
ENCODING 63
SWIDTH 500 0
DWIDTH 32 0
BBX 28 45 1 -1
BITMAP
7FFFF000
FFFFFC00
FFFFFF00
FFFFFF80
7FFFFFC0
00007FC0
00000FE0
000007E0
000007E0
000007E0
000003F0
000003F0
000007E0
000007E0
000007E0
00000FE0
00001FC0
00003FC0
00007F80
0000FF00
0003FE00
0007FC00
000FF800
001FF000
003FC000
007F8000
007F0000
007E0000
00FC0000
00FC0000
00FC0000
00F80000
00780000
00780000
00000000
00000000
00000000
00000000
00700000
00F80000
00FC0000
01FC0000
00FC0000
00F80000
00700000
ENDCHAR
STARTCHAR at
ENCODING 64
SWIDTH 800 0
DWIDTH 51 0
BBX 45 46 3 -1
BITMAP
00001FF00000
0001FFFF0000
0007FFFFC000
001FFFFFF000
003FF00FFC00
00FF0001FE00
01FC00007F00
03F800001F80
07E000000FC0
07C0000007C0
0F800FC003E0
1F803FF0F3E0
1F00FFF9F1F0
3E01FFFDF1F0
3E03FFFFE0F0
7C07F83FE0F8
7C07F01FE0F8
7C0FC00FE0F8
7C1FC00FC078
F81F8007C078
F81F0007C078
F83F00078078
F83F000780F8
F83E000F80F0
F83E000F80F0
F83E000F00F0
F83E001F01E0
783E001F01E0
7C3E003F03C0
7C3F007E07C0
7C3F00FE0780
3E1FC3FE1F00
3E1FFFFF7E00
1F0FFFFFFC00
1F07FF3FF800
0F83FE1FE000
0FC0F80F83E0
07E0000007C0
03F800000F80
01FC00003F00
00FF0000FE00
007FF00FFC00
001FFFFFF000
0007FFFFE000
0001FFFF0000
00001FF80000
ENDCHAR
STARTCHAR A
ENCODING 65
SWIDTH 667 0
DWIDTH 43 0
BBX 39 45 2 0
BITMAP
0000780000
0000FC0000
0001FE0000
0003FF0000
0007FF0000
0007FF8000
000FFFC000
001FCFC000
001F8FE000
003F87F000
003F03F000
007E03F800
007E01F800
00FE01FC00
00FC00FC00
01FC007E00
01F8007E00
03F8003E00
03F8003F00
03FF003F00
07FFF01F80
07FFFC1F80
07FFFF0F80
0FFFFFCFC0
0FC0FFEFC0
0FC00FF7E0
1F8003FFE0
1F8000FFE0
1F80007FF0
3F00001FF0
3F00000FF0
3F00000FF0
3E000007F8
7E000003F8
7E000003F8
7E000001F8
7E000001FC
7C000001FC
FC000000FC
FC000000FC
FC000000FC
FC000000FC
FC0000007E
FC0000007C
780000003C
ENDCHAR
STARTCHAR B
ENCODING 66
SWIDTH 611 0
DWIDTH 39 0
BBX 32 44 5 0
BITMAP
FFFFFF00
FFFFFFC0
FFFFFFE0
FFFFFFF0
FFFFFFF8
F80007F8
F80001F8
F80001F8
F80000F8
F80000F8
F80000F8
FFC001F8
FFFE03F8
FFFFC3F0
FFFFFFE0
FFFFFFE0
F8FFFFC0
F807FF80
F800FFC0
F8001FE0
F8000FF0
F80003F8
F80001FC
F80000FC
F80000FE
F800007E
F800007F
F800003F
F800003F
F800003F
F800003F
F800003F
F800003F
F800003F
F800003F
F800007F
F80000FE
F80001FE
F8000FFC
FFFFFFFC
FFFFFFF8
FFFFFFF0
FFFFFFC0
7FFFFF00
ENDCHAR
STARTCHAR C
ENCODING 67
SWIDTH 611 0
DWIDTH 39 0
BBX 35 45 3 -1
BITMAP
000FFFFF00
007FFFFF80
01FFFFFF80
03FFFFFF80
07FFFFFF00
0FFF000000
1FF0000000
3FC0000000
3F80000000
7F00000000
7F00000000
FE00000000
FE00000000
FC00000000
FC00000000
FC00000000
FC00000000
FC00000000
FC00000000
FC00000000
FC00000000
FC00000000
FC00000000
FC00000000
FE00000000
7E00000000
7E00000000
7F00000000
3F80000000
3F80000000
1FC0000000
1FE0000000
0FE0000000
07F8000000
07FC000000
03FE000000
01FF800000
00FFE00000
007FFC0000
003FFFE000
000FFFFFC0
0003FFFFE0
0001FFFFE0
00003FFFC0
000007FF80
ENDCHAR
STARTCHAR D
ENCODING 68
SWIDTH 667 0
DWIDTH 43 0
BBX 35 45 5 0
BITMAP
3FE0000000
FFFF000000
FFFFE00000
FFFFF80000
FFFFFC0000
FFFFFF0000
F807FF8000
F800FFE000
F8003FF000
F8000FF800
F80007F800
F80003FC00
F80001FE00
F80000FE00
F800007F00
F800003F80
F800003F80
F800001F80
F800001FC0
F800000FC0
F800000FC0
F800000FC0
F8000007E0
F8000007E0
F8000007E0
F8000007E0
F8000007E0
F8000007E0
F8000007E0
F8000007E0
F8000007E0
F800000FE0
F800000FC0
F800000FC0
F800001FC0
F800001F80
F800003F80
F800007F00
F80001FF00
F8001FFE00
FFFFFFFC00
FFFFFFF800
FFFFFFE000
FFFFFF8000
FFFFFC0000
ENDCHAR
STARTCHAR E
ENCODING 69
SWIDTH 556 0
DWIDTH 36 0
BBX 28 44 5 0
BITMAP
FFFFFFE0
FFFFFFF0
FFFFFFF0
FFFFFFF0
FFFFFFF0
F8000000
F8000000
F8000000
F8000000
F8000000
FFFFFFE0
FFFFFFE0
FFFFFFF0
FFFFFFF0
FFFFFFE0
F8000000
F8000000
F8000000
F8000000
F8000000
F8000000
F8000000
F8000000
F8000000
F8000000
F8000000
F8000000
F8000000
F8000000
F8000000
F8000000
F8000000
F8000000
F8000000
F8000000
F8000000
F8000000
F8000000
F8000000
FFFFFFF0
FFFFFFF0
FFFFFFF0
FFFFFFF0
7FFFFFE0
ENDCHAR
STARTCHAR F
ENCODING 70
SWIDTH 500 0
DWIDTH 32 0
BBX 27 44 5 0
BITMAP
7FFFFFC0
FFFFFFC0
FFFFFFE0
FFFFFFC0
FFFFFFC0
F8000000
F8000000
F8000000
F8000000
F8000000
FFFFFF00
FFFFFF80
FFFFFF80
FFFFFF80
FFFFFF80
F8000000
F8000000
F8000000
F8000000
F8000000
F8000000
F8000000
F8000000
F8000000
F8000000
F8000000
F8000000
F8000000
F8000000
F8000000
F8000000
F8000000
F8000000
F8000000
F8000000
F8000000
F8000000
F8000000
F8000000
F8000000
F8000000
F8000000
F8000000
70000000
ENDCHAR
STARTCHAR G
ENCODING 71
SWIDTH 667 0
DWIDTH 43 0
BBX 37 45 2 -1
BITMAP
0007FFFFE0
007FFFFFF0
01FFFFFFF0
03FFFFFFF0
07FFFFFFE0
0FFE000000
1FF0000000
1FC0000000
3F80000000
3F00000000
7F000FFFF0
7E001FFFF8
7E001FFFF8
FE001FFFF8
FE001FFFF8
FE000000F8
FE000000F8
FE000000F8
FE000000F8
FE000000F8
FE000000F8
7E000000F8
7E000000F8
7E000000F8
7F000000F8
7F000000F8
3F000000F8
3F800000F8
3F800000F8
1FC00000F8
1FE00000F8
0FE00000F8
07F00000F8
07F80000F8
03FE0000F8
01FF0000F8
00FFC000F8
007FF000F8
003FFE00F8
001FFFF0F8
0007FFFFF8
0001FFFFF8
00007FFFF8
00000FFFF0
000000FFE0
ENDCHAR
STARTCHAR H
ENCODING 72
SWIDTH 611 0
DWIDTH 39 0
BBX 29 44 5 0
BITMAP
70000070
F80000F8
F80000F8
F80000F8
F80000F8
F80000F8
F80000F8
F80000F8
F80000F8
F80000F8
F80000F8
FFFFFFF8
FFFFFFF8
FFFFFFF8
FFFFFFF8
FFFFFFF8
F80000F8
F80000F8
F80000F8
F80000F8
F80000F8
F80000F8
F80000F8
F80000F8
F80000F8
F80000F8
F80000F8
F80000F8
F80000F8
F80000F8
F80000F8
F80000F8
F80000F8
F80000F8
F80000F8
F80000F8
F80000F8
F80000F8
F80000F8
F80000F8
F80000F8
F80000F8
F80000F8
70000070
ENDCHAR
STARTCHAR I
ENCODING 73
SWIDTH 222 0
DWIDTH 14 0
BBX 6 44 4 0
BITMAP
78
7C
FC
FC
FC
FC
FC
FC
FC
FC
FC
FC
FC
FC
FC
FC
FC
FC
FC
FC
FC
FC
FC
FC
FC
FC
FC
FC
FC
FC
FC
FC
FC
FC
FC
FC
FC
FC
FC
FC
FC
FC
7C
78
ENDCHAR
STARTCHAR J
ENCODING 74
SWIDTH 444 0
DWIDTH 28 0
BBX 26 45 -2 -1
BITMAP
00000700
00000F80
00000F80
00000FC0
00000FC0
00000FC0
00000FC0
00000FC0
00000FC0
00000FC0
00000FC0
00000FC0
00000FC0
00000FC0
00000FC0
00000FC0
00000FC0
00000FC0
00000FC0
00000FC0
00000FC0
00000FC0
00000FC0
00000FC0
00000FC0
00000FC0
00000FC0
00000FC0
00000FC0
00000FC0
00000FC0
00000FC0
00000FC0
00000FC0
00001F80
00001F80
00003F80
70007F80
FE00FF00
FFFFFF00
FFFFFE00
7FFFFC00
3FFFF000
1FFFE000
03FF0000
ENDCHAR
STARTCHAR K
ENCODING 75
SWIDTH 611 0
DWIDTH 39 0
BBX 33 44 5 0
BITMAP
7000007000
F80000F800
F80000F800
F80001F800
F80001F800
F80003F800
F80003F000
F80007F000
F8000FE000
F8001FC000
F8003F8000
FF80FF0000
FFFFFE0000
FFFFFC0000
FFFFF00000
FFFFF00000
F87FF80000
F80FFC0000
F803FE0000
F800FF0000
F8007F8000
F8003FC000
F8001FC000
F8000FE000
F80007F000
F80007F000
F80003F800
F80001F800
F80001FC00
F80000FC00
F80000FC00
F800007E00
F800007E00
F800007E00
F800007F00
F800003F00
F800003F00
F800003F00
F800003F00
F800001F80
F800001F80
F800001F80
F800001F00
7000000E00
ENDCHAR
STARTCHAR L
ENCODING 76
SWIDTH 444 0
DWIDTH 28 0
BBX 24 44 5 0
BITMAP
780000
FC0000
FC0000
FC0000
FC0000
FC0000
FC0000
FC0000
FC0000
FC0000
FC0000
FC0000
FC0000
FC0000
FC0000
FC0000
FC0000
FC0000
FC0000
FC0000
FC0000
FC0000
FC0000
FC0000
FC0000
FC0000
FC0000
FC0000
FC0000
FC0000
FC0000
FC0000
FC0000
FC0000
FC0000
FC0000
FC0000
FC0000
FC0000
FFFFFE
FFFFFE
FFFFFF
FFFFFE
7FFFFC
ENDCHAR
STARTCHAR M
ENCODING 77
SWIDTH 722 0
DWIDTH 46 0
BBX 38 44 4 0
BITMAP
0380000300
07C0000780
0FC0000FC0
0FE0001FC0
0FE0001FE0
1FF0003FE0
1FF8003FE0
1FF8007FE0
1FF8007FE0
1FFC00FFF0
3FFE00FFF0
3E7E01F9F0
3E7F03F9F0
3E3F03F1F0
3E3F87F1F0
3E1FC7E1F0
3E0FCFE1F0
3E0FFFC1F8
7E07FF80F8
7C07FF80F8
7C03FF00F8
7C01FE00F8
7C00FE00F8
7C007C00F8
7C003000F8
7C000000F8
7C000000F8
7C000000F8
7C000000FC
7C000000FC
FC000000FC
FC000000FC
FC000000FC
FC000000FC
FC000000FC
FC000000FC
FC000000FC
FC000000FC
FC000000FC
FC000000FC
FC000000FC
FC0000007C
780000007C
7800000038
ENDCHAR
STARTCHAR N
ENCODING 78
SWIDTH 611 0
DWIDTH 39 0
BBX 31 44 4 0
BITMAP
38000038
7E00007C
7F00007C
FF80007E
FFC0007E
FFE0007E
FFF0007E
FFF8007E
FDFC007E
FDFE007E
FCFF007E
FC7FC07E
FC3FF07E
FC1FFC7E
FC07FFFE
FC03FFFE
FC00FFFE
FC003FFE
FC0003FE
FC00007E
FC00007E
FC00007E
FC00007E
FC00007E
FC00007E
FC00007E
FC00007E
FC00007E
FC00007E
FC00007E
FC00007E
FC00007E
FC00007E
FC00007E
FC00007E
FC00007E
FC00007E
FC00007E
FC00007E
FC00007E
FC00007E
FC00007C
7C00007C
38000038
ENDCHAR
STARTCHAR O
ENCODING 79
SWIDTH 722 0
DWIDTH 46 0
BBX 41 46 3 -1
BITMAP
0000FF000000
0007FFE00000
001FFFF80000
007FFFFE0000
00FFFFFF0000
01FFC3FF8000
03FE007FC000
07F8001FE000
0FF0000FF000
1FE00007F800
1FC00003F800
3F800001FC00
3F800000FC00
7F000000FE00
7F0000007E00
7E0000007E00
FE0000007F00
FE0000003F00
FC0000003F00
FC0000003F00
FC0000003F00
FC0000003F80
FC0000003F80
FC0000003F80
FC0000003F80
FC0000003F00
FC0000003F00
FC0000003F00
FE0000003F00
FE0000007F00
7E0000007E00
7F0000007E00
7F000000FE00
3F000000FC00
3F800001FC00
1FC00003F800
1FE00007F800
0FF0000FF000
07F8001FE000
03FE007FE000
03FFC3FFC000
00FFFFFF0000
007FFFFE0000
001FFFFC0000
0007FFF00000
0001FF800000
ENDCHAR
STARTCHAR P
ENCODING 80
SWIDTH 556 0
DWIDTH 36 0
BBX 30 44 5 0
BITMAP
7FFFFF80
FFFFFFE0
FFFFFFF0
FFFFFFF8
FFFFFFFC
FC0003FC
FC0000FC
FC0000FC
FC0000FC
FC0000FC
FC0000FC
FC0001FC
FC0003F8
FC000FF8
FC003FF0
FC00FFE0
FC07FFC0
FC7FFF00
FDFFFC00
FFFFF000
FFFFC000
FFFE0000
FFF00000
FF800000
FC000000
FC000000
FC000000
FC000000
FC000000
FC000000
FC000000
FC000000
FC000000
FC000000
FC000000
FC000000
FC000000
FC000000
FC000000
FC000000
FC000000
FC000000
F8000000
78000000
ENDCHAR
STARTCHAR Q
ENCODING 81
SWIDTH 722 0
DWIDTH 46 0
BBX 41 52 3 -7
BITMAP
0000FF000000
0007FFE00000
001FFFF80000
007FFFFE0000
00FFFFFF0000
01FFC3FF8000
03FE007FC000
07F8001FE000
0FF0000FF000
1FE00007F800
1FC00003F800
3F800001FC00
3F000000FC00
7F000000FE00
7E0000007E00
7E0000007E00
FE0000007F00
FC0000003F00
FC0000003F00
FC0000003F00
FC0000003F00
FC0000003F00
FC0000003F80
FC0000003F00
FC0000003F00
FC0000003F00
FC0000003F00
FC0000003F00
FE0000003F00
FE0FE0007F00
7E1FF8007E00
7E3FFC007E00
7F3FFE00FE00
3FBFFF01FC00
3F887F81FC00
1FC01F83F800
1FE00FC7F800
0FF00FEFF000
07F807FFE000
03FC03FFE000
01FFC3FFC000
00FFFFFF0000
007FFFFE0000
001FFFFE0000
000FFFFE0000
0000FF7F0000
0000003FC000
0000001FFF00
0000001FFF80
0000000FFF80
00000003FF80
00000000FF00
ENDCHAR
STARTCHAR R
ENCODING 82
SWIDTH 667 0
DWIDTH 43 0
BBX 36 44 5 0
BITMAP
7FFFFFC000
FFFFFFF000
FFFFFFFC00
FFFFFFFE00
FFFFFFFE00
F80001FF00
F800007F00
F800003F00
F800003F00
F800003F00
FFF0007F00
FFFE007E00
FFFFC0FE00
FFFFF1FC00
FFFFFFF800
FFFFFFF000
F80FFFE000
F801FFC000
F8007FE000
F8001FE000
F80007F000
F80003F800
F80001FC00
F80000FC00
F80000FE00
F800007E00
F800003F00
F800003F00
F800003F80
F800001F80
F800001FC0
F800000FC0
F800000FC0
F800000FC0
F8000007E0
F8000007E0
F8000007E0
F8000007E0
F8000003E0
F8000003E0
F8000003F0
F8000003E0
F8000001E0
70000001E0
ENDCHAR
STARTCHAR S
ENCODING 83
SWIDTH 611 0
DWIDTH 39 0
BBX 35 44 2 0
BITMAP
01FFFFF000
0FFFFFF800
1FFFFFF800
3FFFFFF800
7FFFFFF800
7FC0000000
7E00000000
FE00000000
FC00000000
FC00000000
FE00000000
7F80000000
7FF8000000
3FFFF80000
3FFFFF8000
0FFFFFF000
03FFFFFC00
007FFFFE00
00007FFF00
000003FF80
0000007F80
0000003FC0
0000001FC0
0000000FC0
0000000FE0
00000007E0
00000007E0
00000007E0
00000007E0
00000007E0
00000007E0
0000000FC0
0000000FC0
0000000FC0
0000001F80
0000003F80
0000007F00
000001FF00
00001FFE00
7FFFFFFC00
FFFFFFF800
FFFFFFE000
FFFFFF8000
7FFFFC0000
ENDCHAR
STARTCHAR T
ENCODING 84
SWIDTH 500 0
DWIDTH 32 0
BBX 32 44 0 0
BITMAP
7FFFFFFE
7FFFFFFE
FFFFFFFF
FFFFFFFE
7FFFFFFE
0007E000
0007E000
0007E000
0007E000
0007E000
0007E000
0007E000
0007E000
0007E000
0007E000
0007E000
0007E000
0007E000
0007E000
0007E000
0007E000
0007E000
0007E000
0007E000
0007E000
0007E000
0007E000
0007E000
0007E000
0007E000
0007E000
0007E000
0007E000
0007E000
0007E000
0007E000
0007E000
0007E000
0007E000
0007E000
0007E000
0007E000
0007C000
0003C000
ENDCHAR
STARTCHAR U
ENCODING 85
SWIDTH 611 0
DWIDTH 39 0
BBX 35 45 2 -1
BITMAP
0700001C00
0F80003E00
0F80003E00
0F80003E00
1F80003F00
1F80003F00
1F80003F00
1F80003F00
1F00001F00
1F00001F00
1F00001F00
1F00001F00
3F00001F80
3F00001F80
3F00001F80
3E00000F80
3E00000F80
3E00000F80
3E00000F80
3E00000FC0
7E00000FC0
7E00000FC0
7C000007C0
7C000007C0
7C000007C0
7C000007C0
7C000007C0
FC000007E0
FC000007E0
FC000007E0
FC000007E0
FC000007E0
FE00000FC0
7E00000FC0
7F00001FC0
7F00001FC0
3F80003F80
3FE000FF80
1FF803FF00
0FFFFFFE00
07FFFFFC00
03FFFFF800
00FFFFE000
003FFF8000
0007FC0000
ENDCHAR
STARTCHAR V
ENCODING 86
SWIDTH 611 0
DWIDTH 39 0
BBX 35 45 2 -1
BITMAP
70000001C0
F8000003E0
F8000003E0
F8000003E0
FC000007E0
FC000007E0
FC000007E0
FC000007E0
FC000007E0
FC000007E0
7E00000FC0
7E00000FC0
7E00000FC0
7E00000FC0
3E00001F80
3F00001F80
3F00001F80
3F00001F00
1F00003F00
1F80003F00
1F80003F00
0F80003E00
0FC0007E00
0FC0007C00
07C0007C00
07E000FC00
03E000F800
03E001F800
03F001F800
01F001F000
01F803F000
00F803E000
00FC07E000
007C07C000
007E0FC000
007E0F8000
003F1F8000
001F1F0000
001FBF0000
000FFE0000
000FFE0000
0007FC0000
0003F80000
0001F00000
0000E00000
ENDCHAR
STARTCHAR W
ENCODING 87
SWIDTH 833 0
DWIDTH 53 0
BBX 49 45 2 -1
BITMAP
380001C0000F00
7C0003E0001F00
7C0003F0001F80
FC0003F0001F80
FC0007F0001F80
FC0007F0001F80
FC0007F0001F80
FC0007F0001F80
FC0007F0001F80
FC0007F0001F80
7C0007F0001F80
7C0007F0001F80
7E0007F8001F00
7E000FF8001F00
7E000FF8003F00
7E000FF8003F00
7E000FF8003F00
3E000FF8003F00
3E000FFC003E00
3F001FFC003E00
3F001F7C007E00
3F001F7C007E00
1F001F7C007E00
1F001F7E007C00
1F803F3E007C00
1F803E3E00FC00
1F803E3E00FC00
0F803E3F00F800
0FC07E1F01F800
0FC07C1F01F800
07C07C1F81F800
07E0FC1F83F000
07E0F80F83F000
03E0F80FC3F000
03F1F80FC7E000
03F1F007C7E000
01FBF007E7E000
01FBF003EFC000
01FFE003FFC000
00FFE001FF8000
00FFC001FF8000
007FC000FF0000
003F8000FF0000
003F00007E0000
000E00003C0000
ENDCHAR
STARTCHAR X
ENCODING 88
SWIDTH 611 0
DWIDTH 39 0
BBX 35 44 2 0
BITMAP
1E00000F00
3F00001F80
3F00001F80
3F80003F80
1FC0007F00
1FC0007F00
0FE000FE00
0FF001FE00
07F803FC00
03FC07F800
01FE0FF000
00FF1FE000
007FBFC000
003FFF8000
001FFF0000
000FFE0000
0007FC0000
000FFE0000
003FFF0000
007FFFC000
007F1FC000
00FE0FE000
01FC07F000
03F803F800
03F001F800
07F001FC00
0FE000FE00
0FC0007E00
1FC0007F00
1F80003F00
3F80003F80
3F00001F80
3F00001F80
7F00001FC0
7E00000FC0
7E00000FC0
FE00000FE0
FC000007E0
FC000007E0
FC000007E0
FC000007E0
F8000003E0
F8000003E0
70000001C0
ENDCHAR
STARTCHAR Y
ENCODING 89
SWIDTH 556 0
DWIDTH 36 0
BBX 32 44 2 0
BITMAP
7000001E
F800001F
FC00003F
FC00003F
FC00007F
FE00007E
7E00007E
7E0000FE
7F0000FC
3F0001FC
3F8001F8
1F8003F8
1FC007F0
0FE007E0
07F00FE0
07F81FC0
03F83F80
01FE7F80
00FFFF00
007FFE00
003FFC00
001FF800
000FF000
0007E000
0007E000
0007E000
0007E000
0007E000
0007E000
0007E000
0007E000
0007E000
0007E000
0007E000
0007E000
0007E000
0007E000
0007E000
0007E000
0007E000
0007E000
0007E000
0007C000
00038000
ENDCHAR
STARTCHAR Z
ENCODING 90
SWIDTH 500 0
DWIDTH 32 0
BBX 28 44 2 0
BITMAP
1FFFFF80
3FFFFFC0
3FFFFFE0
3FFFFFE0
3FFFFFE0
000007E0
000007E0
000007E0
000007E0
00000FC0
00000FC0
00001FC0
00001F80
00003F80
00007F00
00007F00
0000FE00
0001FE00
0003FC00
0007F800
000FF000
001FE000
003FC000
007F8000
00FF0000
01FE0000
03FC0000
07F80000
0FF00000
0FE00000
1FC00000
3FC00000
3F800000
7F000000
7E000000
7E000000
FC000000
FC000000
FC000000
FFFFFFE0
FFFFFFF0
FFFFFFF0
7FFFFFF0
3FFFFFE0
ENDCHAR
STARTCHAR bracketleft
ENCODING 91
SWIDTH 389 0
DWIDTH 25 0
BBX 14 60 6 -14
BITMAP
FFF8
FFFC
FFFC
FFF8
F800
F800
F800
F800
F800
F800
F800
F800
F800
F800
F800
F800
F800
F800
F800
F800
F800
F800
F800
F800
F800
F800
F800
F800
F800
F800
F800
F800
F800
F800
F800
F800
F800
F800
F800
F800
F800
F800
F800
F800
F800
F800
F800
F800
F800
F800
F800
F800
F800
F800
F800
F800
FFF8
FFFC
FFFC
FFFC
ENDCHAR
STARTCHAR backslash
ENCODING 92
SWIDTH 278 0
DWIDTH 18 0
BBX 22 46 -2 -1
BITMAP
700000
F80000
F80000
FC0000
FC0000
7C0000
7E0000
3E0000
3F0000
3F0000
1F0000
1F8000
0F8000
0FC000
07C000
07E000
07E000
03E000
03F000
01F000
01F800
01F800
00F800
00FC00
007C00
007E00
003E00
003F00
003F00
001F00
001F80
000F80
000FC0
000FC0
0007C0
0007E0
0003E0
0003F0
0001F0
0001F8
0001F8
0000F8
0000FC
00007C
00007C
000038
ENDCHAR
STARTCHAR bracketright
ENCODING 93
SWIDTH 389 0
DWIDTH 25 0
BBX 14 60 5 -14
BITMAP
FFF8
FFFC
FFFC
7FFC
007C
007C
007C
007C
007C
007C
007C
007C
007C
007C
007C
007C
007C
007C
007C
007C
007C
007C
007C
007C
007C
007C
007C
007C
007C
007C
007C
007C
007C
007C
007C
007C
007C
007C
007C
007C
007C
007C
007C
007C
007C
007C
007C
007C
007C
007C
007C
007C
007C
007C
007C
007C
7FFC
FFFC
FFFC
FFF8
ENDCHAR
STARTCHAR asciicircum
ENCODING 94
SWIDTH 600 0
DWIDTH 38 0
BBX 31 26 4 18
BITMAP
000FC000
000FC000
001FE000
001FE000
003FF000
003FF000
007EF800
007CF800
00FC7C00
00F87C00
01F83E00
01F03E00
03F01F00
03E01F00
07E00F80
07C00FC0
0FC007C0
0F8007E0
1F8003E0
1F0003F0
3F0001F0
3E0001F8
7E0000F8
7C0000FC
FC00007C
F800007E
ENDCHAR
STARTCHAR underscore
ENCODING 95
SWIDTH 500 0
DWIDTH 32 0
BBX 32 3 0 -8
BITMAP
FFFFFFFF
FFFFFFFF
FFFFFFFF
ENDCHAR
STARTCHAR grave
ENCODING 96
SWIDTH 222 0
DWIDTH 14 0
BBX 17 9 -1 36
BITMAP
700000
FE0000
FF8000
FFF000
FFFC00
3FFF00
03FF80
007F80
000700
ENDCHAR
STARTCHAR a
ENCODING 97
SWIDTH 500 0
DWIDTH 32 0
BBX 27 34 1 -1
BITMAP
1FFFF800
3FFFFE00
3FFFFF00
3FFFFF80
1FFFFFC0
00001FC0
000007E0
000007E0
000007E0
000003E0
000003E0
0000FFE0
003FFFE0
01FFFFE0
07FFFFE0
0FFFF3E0
1FF803E0
3FC003E0
7F0003E0
7E0003E0
FC0003E0
FC0003E0
FC0007E0
FC0007E0
FC0007E0
FC0007E0
FC000FE0
FE000FE0
7F003FE0
7FF3FFE0
3FFFFFE0
1FFFF3E0
07FFE1C0
00FF0000
ENDCHAR
STARTCHAR b
ENCODING 98
SWIDTH 556 0
DWIDTH 36 0
BBX 29 44 4 0
BITMAP
78000000
F8000000
FC000000
FC000000
FC000000
FC000000
FC000000
FC000000
FC000000
FC000000
FFF00000
FFFF0000
FFFFE000
FFFFF800
FFFFFC00
FCFFFE00
FC07FF00
FC00FF80
FC003FC0
FC001FE0
FC000FE0
FC0007F0
FC0007F0
FC0003F0
FC0003F8
FC0001F8
FC0001F8
FC0001F8
FC0001F8
FC0001F8
FC0001F8
FC0001F8
FC0001F8
FC0001F8
FC0003F8
FC0003F0
FC0007F0
FC001FE0
FC00FFE0
FFFFFFC0
FFFFFF80
FFFFFF00
FFFFFC00
7FFFE000
ENDCHAR
STARTCHAR c
ENCODING 99
SWIDTH 500 0
DWIDTH 32 0
BBX 30 33 2 0
BITMAP
003FFFE0
01FFFFF0
03FFFFF0
07FFFFF0
0FFFFFE0
1FF00000
3FC00000
3F800000
7F000000
7E000000
7E000000
7E000000
7E000000
FE000000
FE000000
7E000000
7E000000
7E000000
7E000000
7E000000
3F000000
3F000000
3F800000
1FC00000
0FE00000
0FF00000
07FC0000
03FF8000
01FFFFF8
00FFFFF8
003FFFFC
000FFFF8
0001FFF0
ENDCHAR
STARTCHAR d
ENCODING 100
SWIDTH 556 0
DWIDTH 36 0
BBX 30 44 2 0
BITMAP
00000078
000000F8
000000FC
000000FC
000000FC
000000FC
000000FC
000000FC
000000FC
000000FC
00007FFC
0007FFFC
001FFFFC
007FFFFC
01FFFFFC
03FFF8FC
07FF00FC
0FFC00FC
0FF000FC
1FE000FC
3F8000FC
3F8000FC
7F0000FC
7E0000FC
7E0000FC
7E0000FC
7C0000FC
FC0000FC
FC0000FC
FC0000FC
FC0000FC
FC0000FC
FC0000FC
7E0000FC
7E0000FC
7F0000FC
7F8000FC
3FC000FC
1FFC00FC
1FFFFFFC
0FFFFFFC
03FFFFFC
00FFFFF8
001FFFF8
ENDCHAR
STARTCHAR e
ENCODING 101
SWIDTH 556 0
DWIDTH 36 0
BBX 30 34 3 0
BITMAP
000FF000
00FFFE00
01FFFF00
07FFFFC0
0FFFFFE0
1FF01FE0
3FC007F0
3F8003F8
7F0001F8
7E0000F8
7E0000FC
FC0000FC
FC0000FC
FFFFFFFC
FFFFFFFC
FFFFFFFC
FFFFFFFC
FC000000
FC000000
FC000000
FC000000
FC000000
FC000000
7E000000
7E000000
7F000000
3F800000
3FC00000
1FF00000
0FFFFFF8
07FFFFFC
03FFFFFC
00FFFFFC
001FFFF8
ENDCHAR
STARTCHAR f
ENCODING 102
SWIDTH 333 0
DWIDTH 21 0
BBX 22 44 2 0
BITMAP
003FF8
00FFFC
01FFFC
03FFFC
03FFF8
07F800
07E000
07E000
07E000
07E000
7FFFC0
FFFFE0
FFFFF0
FFFFE0
7FFFE0
07E000
07E000
07E000
07E000
07E000
07E000
07E000
07E000
07E000
07E000
07E000
07E000
07E000
07E000
07E000
07E000
07E000
07E000
07E000
07E000
07E000
07E000
07E000
07E000
07E000
07E000
07E000
07C000
03C000
ENDCHAR
STARTCHAR g
ENCODING 103
SWIDTH 556 0
DWIDTH 36 0
BBX 33 48 2 -14
BITMAP
0000FFFC00
000FFFFE00
003FFFFF00
00FFFFFF00
01FFFFFE00
03FF01F800
07F801F000
0FF001F000
1FC001F000
1F8001F000
3F8001F000
3F0001F000
7E0001F000
7E0001F000
7E0001F000
7C0001F000
FC0001F000
FC0001F000
FC0001F000
FC0001F000
FC0001F000
FC0001F000
FC0001F000
7E0001F000
7E0001F000
7E0001F000
3F0001F000
3FC001F000
1FF001F800
0FFFFFFC00
07FFFFFE00
03FFFFFF00
00FFFFFF00
001FFFFF80
0000001F80
0000000F80
0000000F80
0000000F80
0000000F80
0000001F80
6000003F80
FE00007F00
FFE003FE00
FFFFFFFC00
7FFFFFF800
3FFFFFE000
0FFFFF8000
007FF80000
ENDCHAR
STARTCHAR h
ENCODING 104
SWIDTH 556 0
DWIDTH 36 0
BBX 27 44 4 0
BITMAP
78000000
FC000000
FC000000
FC000000
FC000000
FC000000
FC000000
FC000000
FC000000
FC000000
FC1FE000
FC7FFC00
FDFFFE00
FFFFFF00
FFFFFF80
FFF87FC0
FFC01FC0
FF800FE0
FF0007E0
FE0007E0
FE0007E0
FC0007E0
FC0003E0
FC0003E0
FC0003E0
FC0003E0
FC0003E0
FC0003E0
FC0003E0
FC0003E0
FC0003E0
FC0003E0
FC0003E0
FC0003E0
FC0003E0
FC0003E0
FC0003E0
FC0003E0
FC0003E0
FC0003E0
FC0003E0
FC0003E0
7C0003E0
780001C0
ENDCHAR
STARTCHAR i
ENCODING 105
SWIDTH 222 0
DWIDTH 14 0
BBX 6 44 4 0
BITMAP
78
7C
FC
FC
FC
FC
78
00
00
00
00
78
7C
FC
FC
FC
FC
FC
FC
FC
FC
FC
FC
FC
FC
FC
FC
FC
FC
FC
FC
FC
FC
FC
FC
FC
FC
FC
FC
FC
FC
FC
7C
78
ENDCHAR
STARTCHAR j
ENCODING 106
SWIDTH 222 0
DWIDTH 14 0
BBX 21 58 -11 -14
BITMAP
0000F0
0000F8
0001F8
0001F8
0001F8
0001F8
0000F0
000000
000000
000000
000000
0000F0
0000F8
0001F8
0001F8
0001F8
0001F8
0001F8
0001F8
0001F8
0001F8
0001F8
0001F8
0001F8
0001F8
0001F8
0001F8
0001F8
0001F8
0001F8
0001F8
0001F8
0001F8
0001F8
0001F8
0001F8
0001F8
0001F8
0001F8
0001F8
0001F8
0001F8
0001F8
0001F8
0001F8
0001F8
0001F8
0001F8
0001F8
0003F8
0003F0
0007F0
001FE0
7FFFE0
FFFFC0
FFFF80
7FFE00
1FF800
ENDCHAR
STARTCHAR k
ENCODING 107
SWIDTH 500 0
DWIDTH 32 0
BBX 27 44 4 0
BITMAP
78000000
FC000000
FC000000
FC000000
FC000000
FC000000
FC000000
FC000000
FC000000
FC000000
FC000700
FC000F00
FC001F80
FC001F80
FC003F00
FC007F00
FC00FE00
FC01FE00
FC03FC00
FC1FF800
FFFFE000
FFFFC000
FFFF0000
FFFFC000
FFFFF000
FC1FF800
FC07FC00
FC01FE00
FC007E00
FC003F00
FC003F80
FC001F80
FC001FC0
FC000FC0
FC000FC0
FC000FC0
FC0007E0
FC0007E0
FC0007E0
FC0007E0
FC0007E0
FC0003E0
F80003E0
780001C0
ENDCHAR
STARTCHAR l
ENCODING 108
SWIDTH 222 0
DWIDTH 14 0
BBX 6 44 4 0
BITMAP
78
7C
FC
FC
FC
FC
FC
FC
FC
FC
FC
FC
FC
FC
FC
FC
FC
FC
FC
FC
FC
FC
FC
FC
FC
FC
FC
FC
FC
FC
FC
FC
FC
FC
FC
FC
FC
FC
FC
FC
FC
FC
7C
78
ENDCHAR
STARTCHAR m
ENCODING 109
SWIDTH 889 0
DWIDTH 57 0
BBX 49 34 4 0
BITMAP
001FE0007F0000
707FF803FFE000
F9FFFE07FFF800
FBFFFF1FFFFC00
FBFFFFBFFFFC00
FFF0FFBFC3FE00
FFC01FFE00FF00
FF800FFC007F00
FF000FF8003F00
FE0007F8003F00
FE0007F0001F80
FC0007F0001F80
FC0007E0001F80
FC0003E0001F80
FC0003E0001F80
FC0003E0001F80
FC0003E0001F80
FC0003E0001F80
FC0003E0001F80
FC0003E0001F80
FC0003E0001F80
FC0003E0001F80
FC0003E0001F80
FC0003E0001F80
FC0003E0001F80
FC0003E0001F80
FC0003E0001F80
FC0003E0001F80
FC0003E0001F80
FC0003E0001F80
FC0003E0001F80
FC0003E0001F80
F80003E0001F00
780001C0000F00
ENDCHAR
STARTCHAR n
ENCODING 110
SWIDTH 556 0
DWIDTH 36 0
BBX 27 34 4 0
BITMAP
001FE000
707FFC00
F8FFFE00
F9FFFF00
FBFFFF80
FFF87FC0
FFC01FC0
FF800FE0
FF0007E0
FE0007E0
FE0007E0
FC0007E0
FC0003E0
FC0003E0
FC0003E0
FC0003E0
FC0003E0
FC0003E0
FC0003E0
FC0003E0
FC0003E0
FC0003E0
FC0003E0
FC0003E0
FC0003E0
FC0003E0
FC0003E0
FC0003E0
FC0003E0
FC0003E0
FC0003E0
FC0003E0
7C0003E0
780001C0
ENDCHAR
STARTCHAR o
ENCODING 111
SWIDTH 556 0
DWIDTH 36 0
BBX 31 35 2 -1
BITMAP
000FE000
007FFC00
00FFFF00
03FFFF80
07FFFFC0
0FF81FE0
0FE007F0
1FC003F0
3F8001F8
3F0001F8
3F0000FC
7E0000FC
7E00007E
7C00007E
7C00007E
FC00007E
FC00007E
FC00003E
FC00007E
FC00007E
7C00007E
7C00007E
7E00007E
7E0000FC
3F0000FC
3F0001FC
3F8001F8
1FC003F8
0FE007F0
0FF81FE0
07FFFFC0
03FFFF80
01FFFF00
007FFC00
000FE000
ENDCHAR
STARTCHAR p
ENCODING 112
SWIDTH 556 0
DWIDTH 36 0
BBX 29 47 4 -13
BITMAP
7FF80000
FFFF8000
FFFFE000
FFFFF800
FFFFFC00
F80FFE00
F801FF00
F8007F80
F8001FC0
F8000FE0
F8000FE0
F80007F0
F80003F0
F80003F0
F80001F8
F80001F8
F80001F8
F80001F8
F80001F8
F80001F8
F80001F8
F80001F8
F80001F8
F80001F8
F80003F0
F80007F0
F8000FF0
F8001FE0
F800FFC0
FFFFFFC0
FFFFFF80
FFFFFE00
FFFFF800
FFFFC000
F8000000
F8000000
F8000000
F8000000
F8000000
F8000000
F8000000
F8000000
F8000000
F8000000
F8000000
F8000000
70000000
ENDCHAR
STARTCHAR q
ENCODING 113
SWIDTH 556 0
DWIDTH 36 0
BBX 30 47 2 -13
BITMAP
0000FFF0
0007FFF8
003FFFFC
007FFFFC
01FFFFFC
03FFC0FC
07FC00FC
0FF000FC
0FE000FC
1FC000FC
3F8000FC
3F0000FC
7F0000FC
7E0000FC
7E0000FC
7E0000FC
FC0000FC
FC0000FC
FC0000FC
FC0000FC
FC0000FC
7C0000FC
7E0000FC
7E0000FC
7E0000FC
3F0000FC
3F8000FC
3FE000FC
1FFC00FC
0FFFFFFC
07FFFFFC
03FFFFFC
00FFFFFC
001FFFFC
000000FC
000000FC
000000FC
000000FC
000000FC
000000FC
000000FC
000000FC
000000FC
000000FC
000000FC
000000F8
00000078
ENDCHAR
STARTCHAR r
ENCODING 114
SWIDTH 333 0
DWIDTH 21 0
BBX 18 34 4 0
BITMAP
001F80
787F80
7CFFC0
FDFF80
FFFF80
FFF000
FFC000
FF0000
FE0000
FE0000
FC0000
FC0000
FC0000
FC0000
FC0000
FC0000
FC0000
FC0000
FC0000
FC0000
FC0000
FC0000
FC0000
FC0000
FC0000
FC0000
FC0000
FC0000
FC0000
FC0000
FC0000
FC0000
7C0000
780000
ENDCHAR
STARTCHAR s
ENCODING 115
SWIDTH 500 0
DWIDTH 32 0
BBX 28 33 2 0
BITMAP
03FFFF00
0FFFFF80
1FFFFF80
3FFFFF80
7FFFFF80
7E000000
7C000000
7C000000
7E000000
7FC00000
7FFE0000
3FFFF800
1FFFFF00
0FFFFF80
01FFFFC0
0007FFE0
00001FE0
000007F0
000003F0
000003F0
000001F0
000001F0
000001F0
000001F0
000003F0
000003E0
000007E0
00003FE0
7FFFFFC0
FFFFFF80
FFFFFF00
FFFFFE00
7FFFF000
ENDCHAR
STARTCHAR t
ENCODING 116
SWIDTH 333 0
DWIDTH 21 0
BBX 20 44 2 -1
BITMAP
018000
07C000
07C000
07E000
07E000
07E000
07E000
07E000
07E000
7FFF80
FFFFC0
FFFFE0
FFFFC0
7FFFC0
07E000
07E000
07E000
07E000
07E000
07E000
07E000
07E000
07E000
07E000
07E000
07E000
07E000
07E000
07E000
07E000
07E000
07E000
07E000
07E000
07E000
07E000
07E000
07E000
07F800
07FFE0
03FFF0
03FFF0
01FFE0
003FE0
ENDCHAR
STARTCHAR u
ENCODING 117
SWIDTH 556 0
DWIDTH 36 0
BBX 27 34 4 -1
BITMAP
780001C0
7C0003E0
FC0003E0
FC0003E0
FC0003E0
FC0003E0
FC0003E0
FC0003E0
FC0003E0
FC0003E0
FC0003E0
FC0003E0
FC0003E0
FC0003E0
FC0003E0
FC0003E0
FC0003E0
FC0003E0
FC0003E0
FC0003E0
FC0003E0
FC0007E0
FC0007E0
FC0007E0
FE000FE0
7E000FE0
7F001FE0
7F803FE0
3FE1FFE0
3FFFFFE0
1FFFFBE0
0FFFF1E0
03FFE1C0
00FF0000
ENDCHAR
STARTCHAR v
ENCODING 118
SWIDTH 500 0
DWIDTH 32 0
BBX 30 34 1 -1
BITMAP
70000038
78000078
FC0000FC
FC0000FC
FC0000FC
7C0000F8
7C0000F8
7C0000F8
7E0001F8
7E0001F8
3E0001F0
3E0001F0
3F0003F0
3F0003E0
1F0003E0
1F8007E0
0F8007C0
0F800FC0
0FC00FC0
07C00F80
07E01F80
03E01F00
03F03F00
03F07E00
01F87E00
01FCFC00
00FCFC00
007FF800
007FF800
003FF000
003FF000
001FE000
000FC000
00078000
ENDCHAR
STARTCHAR w
ENCODING 119
SWIDTH 722 0
DWIDTH 46 0
BBX 42 34 2 -1
BITMAP
70000E000380
78001E000780
F8001E0007C0
F8001F0007C0
F8003F0007C0
F8003F0007C0
F8003F0007C0
F8003F0007C0
F8003F8007C0
FC007F8007C0
FC007F800FC0
FC007F800FC0
7C007FC00FC0
7C00FFC00F80
7C00FFC00F80
7C00FFC00F80
7E00F3E00F80
7E01F3E01F80
3E01F3E01F00
3E01F3F01F00
3F03E1F01F00
3F03E1F03F00
1F07E1F83E00
1F87C0F83E00
1F8FC0FC7E00
0F8FC0FC7C00
0FDF807EFC00
07DF807EFC00
07FF003FF800
07FF003FF800
03FE001FF000
01FC000FE000
01FC0007E000
007000038000
ENDCHAR
STARTCHAR x
ENCODING 120
SWIDTH 500 0
DWIDTH 32 0
BBX 28 33 2 0
BITMAP
380003C0
7C0003C0
7E0007E0
7E0007E0
7E0007E0
3E000FC0
3F000FC0
3F801FC0
1F801F80
1FE07F80
0FF0FF00
07FDFE00
03FFFC00
01FFF800
00FFF000
00FFF000
01FFF800
03FFFC00
07F0FE00
0FE07F00
1FC03F80
3F801FC0
3F000FC0
7F000FE0
7E0007E0
FC0007F0
FC0003F0
FC0003F0
FC0003F0
F80001F0
F80001F0
F80001F0
700000E0
ENDCHAR
STARTCHAR y
ENCODING 121
SWIDTH 500 0
DWIDTH 32 0
BBX 29 46 2 -13
BITMAP
70000070
F80000F8
F80000F8
F80000F8
FC0001F8
FC0001F8
FC0001F8
FC0001F8
FC0001F8
FC0003F0
7E0003F0
7E0003F0
7E0003E0
3F0007E0
3F0007E0
3F0007E0
1F800FC0
1F800FC0
0F801F80
0FC01F80
0FC01F00
07E03F00
07E03F00
03F07E00
03F0FE00
01F8FC00
01FDF800
00FDF800
007FF000
007FF000
003FE000
001FC000
001FC000
003F8000
003F0000
007F0000
00FE0000
00FC0000
01FC0000
03F80000
07F80000
07F00000
0FE00000
0FC00000
07C00000
07000000
ENDCHAR
STARTCHAR z
ENCODING 122
SWIDTH 444 0
DWIDTH 28 0
BBX 26 33 1 0
BITMAP
1FFFFF00
3FFFFF80
3FFFFFC0
3FFFFFC0
1FFFFFC0
00000F80
00000F80
00001F80
00003F00
00007F00
0001FE00
0003FC00
0007F800
000FF000
001FE000
003FC000
007F8000
00FF0000
03FE0000
07FC0000
0FF00000
1FE00000
1FC00000
3F800000
7F000000
7E000000
7E000000
FC000000
FFFFFF80
FFFFFFC0
FFFFFFC0
7FFFFFC0
3FFFFF80
ENDCHAR
STARTCHAR braceleft
ENCODING 123
SWIDTH 389 0
DWIDTH 25 0
BBX 19 61 3 -14
BITMAP
007FE0
00FFE0
01FFE0
03FFC0
03F000
07E000
07E000
07E000
07C000
07C000
07C000
07C000
07C000
07C000
07C000
07C000
07C000
07C000
07C000
07C000
07C000
07C000
07C000
07C000
0FC000
0FC000
1F8000
3F8000
FF0000
FC0000
FC0000
FF0000
3F8000
1F8000
0FC000
0FC000
07C000
07C000
07C000
07C000
07C000
07C000
07C000
07C000
07C000
07C000
07C000
07C000
07C000
07C000
07C000
07C000
07C000
07E000
07E000
07E000
03F000
03FFC0
01FFE0
00FFE0
003FE0
ENDCHAR
STARTCHAR bar
ENCODING 124
SWIDTH 222 0
DWIDTH 14 0
BBX 6 64 4 -16
BITMAP
FC
FC
FC
FC
FC
FC
FC
FC
FC
FC
FC
FC
FC
FC
FC
FC
FC
FC
FC
FC
FC
FC
FC
FC
FC
FC
FC
FC
FC
FC
FC
FC
FC
FC
FC
FC
FC
FC
FC
FC
FC
FC
FC
FC
FC
FC
FC
FC
FC
FC
FC
FC
FC
FC
FC
FC
FC
FC
FC
FC
FC
FC
FC
FC
ENDCHAR
STARTCHAR braceright
ENCODING 125
SWIDTH 389 0
DWIDTH 25 0
BBX 19 61 3 -14
BITMAP
FF8000
FFE000
FFF000
7FF800
01F800
00F800
00FC00
00FC00
00FC00
00FC00
00FC00
00FC00
00FC00
00FC00
00FC00
00FC00
00FC00
00FC00
00FC00
00FC00
00FC00
00FC00
00FC00
007C00
007C00
007E00
003F00
003F80
001FE0
0007E0
0007E0
001FE0
003F80
003F00
007E00
007E00
007C00
00FC00
00FC00
00FC00
00FC00
00FC00
00FC00
00FC00
00FC00
00FC00
00FC00
00FC00
00FC00
00FC00
00FC00
00FC00
00FC00
00FC00
00FC00
00F800
01F800
7FF800
FFF000
FFE000
FF8000
ENDCHAR
STARTCHAR asciitilde
ENCODING 126
SWIDTH 600 0
DWIDTH 38 0
BBX 30 9 4 12
BITMAP
03E00010
0FFC0038
1FFF8078
3FFFE0FC
7FFFFFF8
FC1FFFF0
7803FFF0
7000FFC0
20001F80
ENDCHAR
STARTCHAR uni00A0
ENCODING 160
SWIDTH 305 0
DWIDTH 20 0
BBX 1 1 0 0
BITMAP
00
ENDCHAR
STARTCHAR exclamdown
ENCODING 161
SWIDTH 278 0
DWIDTH 18 0
BBX 6 45 6 -13
BITMAP
78
FC
FC
FC
FC
FC
78
00
00
00
00
00
78
78
F8
F8
F8
F8
F8
F8
F8
FC
FC
FC
FC
FC
FC
FC
FC
FC
FC
FC
FC
FC
FC
FC
FC
FC
FC
FC
FC
FC
FC
FC
78
ENDCHAR
STARTCHAR cent
ENCODING 162
SWIDTH 611 0
DWIDTH 39 0
BBX 25 48 6 -1
BITMAP
00038000
00078000
0007C000
000FC000
000FC000
000FC000
000FC000
000FC000
000FC000
001FFE00
01FFFF00
07FFFF80
0FFFFF80
1FFFFF00
3FCFC000
7F0FC000
7E0FC000
FC0FC000
FC0FC000
FC0FC000
F80FC000
F80FC000
FC0FC000
FC0FC000
FC0FC000
FC0FC000
7E0FC000
7E0FC000
7F0FC000
3F8FC000
1FCFC000
1FFFC000
0FFFC000
07FFFF00
01FFFF80
00FFFF80
003FFF80
000FFE00
000FC000
000FC000
000FC000
000FC000
000FC000
000FC000
000FC000
0007C000
00078000
00078000
ENDCHAR
STARTCHAR sterling
ENCODING 163
SWIDTH 611 0
DWIDTH 39 0
BBX 35 46 0 -1
BITMAP
000003FE00
00001FFF80
00007FFFE0
0000FFFFE0
0001FFFFE0
0003FE0FE0
0007F800C0
0007E00000
0007E00000
000FC00000
000FC00000
000F800000
000F800000
000F800000
000F800000
000F800000
000F800000
000F800000
01FFFFFE00
03FFFFFF00
03FFFFFF00
03FFFFFF00
01FFFFFE00
000F800000
000F800000
000F800000
000F800000
000F800000
000F800000
000F800000
000F800000
000F800000
000F800000
000F800000
000F800000
000F800000
000F800000
001F800000
003F000000
01FF000000
0FFFFC0F80
7FFFFFFF80
FFFFFFFF80
FFFFFFFF80
FFFFFFFF00
F8000FFC00
ENDCHAR
STARTCHAR currency
ENCODING 164
SWIDTH 611 0
DWIDTH 39 0
BBX 31 32 4 6
BITMAP
201FE008
707FFC1C
F9FFFF3E
FFFFFFFE
7FFFFFFC
3FF01FF8
1FC007F0
3F8003F8
7F0001FC
7E0000FC
FC00007C
FC00007E
F800003E
F800003E
F800003E
F800003E
F800003E
F800003E
F800003E
F800003E
FC00007E
7C00007C
7E0000FC
7F0001FC
3F8003F8
1FC007F0
3FF01FF8
7FFFFFFC
FFFFFFFE
F9FFFF3E
707FFC1C
200FE008
ENDCHAR
STARTCHAR yen
ENCODING 165
SWIDTH 611 0
DWIDTH 39 0
BBX 33 45 3 0
BITMAP
7800000F00
7C00001F00
FC00001F80
FE00003F80
7E00003F00
7E00003F00
7F00007F00
3F00007E00
3F8000FE00
1F8000FC00
1FC001FC00
0FC001F800
0FE003F800
07F007F000
7FF007FF00
FFF80FFF80
FFFC1FFF80
FFFE3FFF80
7FFFFFFF00
007FFF0000
003FFE0000
001FFC0000
0007F00000
0003E00000
3FFFFFFE00
3FFFFFFE00
7FFFFFFF00
7FFFFFFE00
3FFFFFFE00
0003E00000
0003E00000
0003E00000
0003E00000
0003E00000
0003E00000
0003E00000
0003E00000
0003E00000
0003E00000
0003E00000
0003E00000
0003E00000
0003E00000
0003E00000
0001C00000
ENDCHAR
STARTCHAR brokenbar
ENCODING 166
SWIDTH 222 0
DWIDTH 14 0
BBX 6 54 4 -11
BITMAP
FC
FC
FC
FC
FC
FC
FC
FC
FC
FC
FC
FC
FC
FC
FC
FC
FC
FC
FC
FC
FC
FC
00
00
00
00
00
00
00
00
00
00
FC
FC
FC
FC
FC
FC
FC
FC
FC
FC
FC
FC
FC
FC
FC
FC
FC
FC
FC
FC
FC
FC
ENDCHAR
STARTCHAR section
ENCODING 167
SWIDTH 500 0
DWIDTH 32 0
BBX 27 44 2 0
BITMAP
01FFFE00
07FFFF00
0FFFFF00
1FFFFF00
1FFFFE00
3F800000
3F000000
3E000000
3E000000
3F000000
3FE00000
1FFC0000
1FFF8000
3FFFE000
7FFFFC00
7FFFFF00
7C3FFF80
7C07FFC0
7C01FFC0
7E003FE0
7FC00FE0
7FF803E0
3FFE03E0
1FFFC3E0
0FFFFBE0
01FFFFE0
003FFFE0
0007FFE0
0001FFC0
00003FC0
00000FC0
00000FC0
000007C0
000007C0
000007C0
000007C0
00000FC0
00001FC0
0000FF80
7FFFFF80
7FFFFF00
FFFFFE00
7FFFF800
7FFFE000
ENDCHAR
STARTCHAR dieresis
ENCODING 168
SWIDTH 222 0
DWIDTH 14 0
BBX 21 7 -3 37
BITMAP
7801E0
FC03F0
FE03F0
FE07F8
FE03F0
FC03F0
7801E0
ENDCHAR
STARTCHAR copyright
ENCODING 169
SWIDTH 800 0
DWIDTH 51 0
BBX 45 46 3 -1
BITMAP
00003FE00000
0001FFFC0000
000FFFFF8000
001FFFFFC000
007FF03FF000
00FF0007F800
01FC0000FC00
03F000007E00
07E000003F00
0FC03FF01F80
0F80FFFC0F80
1F01FFFE07C0
1F03FFFF07C0
3E07F03F83E0
3E0FC00F83E0
7C0F8007C1F0
7C1F0007C1F0
7C1F0003C1F0
783F000000F8
F83E000000F8
F83E000000F8
F83E000000F8
F83E000000F8
F83E000000F8
F83E000000F8
F83E000000F8
F83E000000F8
783F000000F8
7C1F0003C1F0
7C1F0007C1F0
7C0F800781F0
3E0FC00F81E0
3E07F03F03E0
1F03FFFF03E0
1F01FFFE07C0
0F80FFF80F80
0FC03FF01F80
07E000003F00
03F000007E00
01F80000FC00
00FF0003F800
007FE03FF000
001FFFFFE000
000FFFFF8000
0003FFFE0000
00003FE00000
ENDCHAR
STARTCHAR ordfeminine
ENCODING 170
SWIDTH 300 0
DWIDTH 19 0
BBX 18 21 0 24
BITMAP
3FFC00
7FFF00
3FFF80
001F80
0003C0
0003C0
0003C0
00FFC0
0FFFC0
3FFFC0
7F83C0
7C03C0
F803C0
F003C0
F003C0
F003C0
F007C0
F80FC0
7FFFC0
3FFBC0
0FE180
ENDCHAR
STARTCHAR guillemotleft
ENCODING 171
SWIDTH 444 0
DWIDTH 28 0
BBX 22 25 2 4
BITMAP
008000
03C03C
03E07C
07C07C
07C0F8
0FC0F8
0F81F0
1F83F0
3F03E0
3F07E0
7E07C0
7E0FC0
FC0F80
7E0FC0
7E07C0
3F07E0
3F03E0
1F03F0
1F81F0
0F81F8
0FC0F8
07C0FC
03E07C
03C07C
01C038
ENDCHAR
STARTCHAR logicalnot
ENCODING 172
SWIDTH 600 0
DWIDTH 38 0
BBX 32 18 3 7
BITMAP
FFFFFFFF
FFFFFFFF
FFFFFFFF
FFFFFFFF
FFFFFFFF
0000001F
0000001F
0000001F
0000001F
0000001F
0000001F
0000001F
0000001F
0000001F
0000001F
0000001F
0000001F
0000001F
ENDCHAR
STARTCHAR uni00AD
ENCODING 173
SWIDTH 333 0
DWIDTH 21 0
BBX 15 5 3 14
BITMAP
7FFC
FFFE
FFFE
FFFE
7FFC
ENDCHAR
STARTCHAR registered
ENCODING 174
SWIDTH 800 0
DWIDTH 51 0
BBX 45 46 3 -1
BITMAP
00003FE00000
0001FFFE0000
000FFFFF8000
001FFFFFC000
007FF03FF000
00FF0007F800
01FC0000FC00
03F000007E00
07E000003F00
0FC7FF001F80
0F87FFFC0F80
1F07FFFE07C0
1F07FFFF03E0
3E07C01F83E0
3E07C00F81E0
7C07C00781F0
7C07C00781F0
7C07C00781F0
7807C00780F8
F807C00F80F8
F807C01F80F8
F807FFFF00F8
F807FFFE00F8
F807FFFC00F8
F807FFC000F8
F807C1E000F8
F807C1F000F8
7807C0F000F8
7C07C0F801F0
7C07C07C01F0
7C07C03C01F0
3E07C03E03E0
3E07C01E03E0
1F07C01F07E0
1F07C00F87C0
0F87C0078F80
0FC000001F80
07E000003F00
03F000007E00
01FC0000FC00
00FF0007F800
007FE07FF000
001FFFFFE000
000FFFFF8000
0001FFFE0000
00003FE00000
ENDCHAR
STARTCHAR macron
ENCODING 175
SWIDTH 222 0
DWIDTH 14 0
BBX 18 4 -2 39
BITMAP
FFFFC0
FFFFC0
FFFFC0
7FFFC0
ENDCHAR
STARTCHAR degree
ENCODING 176
SWIDTH 400 0
DWIDTH 26 0
BBX 18 19 4 26
BITMAP
03F000
0FFC00
3FFE00
3FFF00
7C1F80
F80780
F007C0
F003C0
F003C0
F003C0
F003C0
F003C0
F00780
F80F80
7E1F80
3FFF00
1FFE00
0FF800
01E000
ENDCHAR
STARTCHAR plusminus
ENCODING 177
SWIDTH 600 0
DWIDTH 38 0
BBX 32 33 3 0
BITMAP
0003E000
0003E000
0003E000
0003E000
0003E000
0003E000
0003E000
0003E000
0003E000
FFFFFFFF
FFFFFFFF
FFFFFFFF
FFFFFFFF
FFFFFFFF
0003E000
0003E000
0003E000
0003E000
0003E000
0003E000
0003E000
0003E000
00000000
00000000
00000000
00000000
00000000
00000000
FFFFFFFF
FFFFFFFF
FFFFFFFF
FFFFFFFF
FFFFFFFF
ENDCHAR
STARTCHAR twosuperior
ENCODING 178
SWIDTH 366 0
DWIDTH 23 0
BBX 20 26 1 18
BITMAP
3FFE00
7FFF80
7FFFC0
3FFFE0
0007E0
0003E0
0001E0
0001E0
0003E0
0007E0
000FC0
001F80
007F00
01FE00
03F800
0FE000
1F8000
3F0000
7C0000
780000
F80000
F00000
FFFFE0
FFFFF0
FFFFF0
7FFFE0
ENDCHAR
STARTCHAR threesuperior
ENCODING 179
SWIDTH 366 0
DWIDTH 23 0
BBX 21 26 1 18
BITMAP
7FFF80
7FFF80
7FFF80
3FFF00
007E00
00F800
03F000
0FC000
1FFC00
1FFF00
0FFFC0
000FE0
0003E0
0001F0
0000F0
0000F8
0000F8
0000F8
0000F0
0000F0
0001F0
0007E0
7FFFE0
FFFFC0
FFFF00
7FF800
ENDCHAR
STARTCHAR acute
ENCODING 180
SWIDTH 222 0
DWIDTH 14 0
BBX 18 9 -2 36
BITMAP
000780
003F80
00FFC0
07FFC0
1FFF80
7FFE00
FFE000
7F0000
700000
ENDCHAR
STARTCHAR mu
ENCODING 181
SWIDTH 556 0
DWIDTH 36 0
BBX 27 47 4 -14
BITMAP
780001C0
7C0003E0
FC0003E0
FC0003E0
FC0003E0
FC0003E0
FC0003E0
FC0003E0
FC0003E0
FC0003E0
FC0003E0
FC0003E0
FC0003E0
FC0003E0
FC0003E0
FC0003E0
FC0003E0
FC0003E0
FC0003E0
FC0003E0
FC0003E0
FC0007E0
FC0007E0
FC0007E0
FE000FE0
FE000FE0
FF001FE0
FF803FE0
FFE1FFE0
FFFFFFE0
FFFFFBE0
FFFFF1E0
FFFFE1C0
FCFF0000
FC000000
FC000000
FC000000
FC000000
FC000000
FC000000
FC000000
FC000000
FC000000
FC000000
FC000000
7C000000
78000000
ENDCHAR
STARTCHAR paragraph
ENCODING 182
SWIDTH 600 0
DWIDTH 38 0
BBX 29 44 3 0
BITMAP
007FFFF8
03FFFFF8
0FFFFFF8
1FFFFFF8
3FFFE1F8
7FFFE1F8
7FFFE1F8
FFFFE1F8
FFFFE1F8
FFFFE1F8
FFFFE1F8
FFFFE1F8
FFFFE1F8
FFFFE1F8
FFFFE1F8
FFFFE1F8
7FFFE1F8
7FFFE1F8
3FFFE1F8
1FFFE1F8
0FFFE1F8
07FFE1F8
01FFE1F8
001FE1F8
0007E1F8
0007E1F8
0007E1F8
0007E1F8
0007E1F8
0007E1F8
0007E1F8
0007E1F8
0007E1F8
0007E1F8
0007E1F8
0007E1F8
0007E1F8
0007E1F8
0007E1F8
0007E1F8
0007E1F8
0007E1F8
0007E1F8
0007E1F8
ENDCHAR
STARTCHAR periodcentered
ENCODING 183
SWIDTH 305 0
DWIDTH 20 0
BBX 7 7 6 13
BITMAP
38
7E
FE
FE
FE
7E
3C
ENDCHAR
STARTCHAR cedilla
ENCODING 184
SWIDTH 222 0
DWIDTH 14 0
BBX 16 14 0 -12
BITMAP
0380
0380
0300
0700
0700
07F8
07FC
00FE
003F
003F
E03E
FC7E
7FFC
1FF0
ENDCHAR
STARTCHAR onesuperior
ENCODING 185
SWIDTH 366 0
DWIDTH 23 0
BBX 15 27 4 18
BITMAP
0780
7F80
FF80
FF80
6780
0780
0780
0780
0780
0780
0780
0780
0780
0780
0780
0780
0780
0780
0780
0780
0780
0780
0780
7FFC
FFFE
FFFE
FFFC
ENDCHAR
STARTCHAR ordmasculine
ENCODING 186
SWIDTH 334 0
DWIDTH 21 0
BBX 20 21 1 24
BITMAP
03F800
0FFE00
1FFF00
3F1F80
7C07C0
7803C0
F801E0
F001E0
F001E0
F000F0
F000F0
F000F0
F001E0
F001E0
F801E0
7803C0
7C07C0
3F1F80
1FFF00
0FFE00
03F800
ENDCHAR
STARTCHAR guillemotright
ENCODING 187
SWIDTH 444 0
DWIDTH 28 0
BBX 22 25 4 4
BITMAP
200200
780F00
F80F80
7C0F80
7C0FC0
7E07C0
3E07E0
3F03E0
1F83F0
1F81F0
0FC1F8
0FC0FC
07E0FC
0FC0FC
0FC1F8
0F81F8
1F83F0
1F03F0
3F07E0
3E07C0
7E07C0
7C0F80
F80F80
780F00
700700
ENDCHAR
STARTCHAR onequarter
ENCODING 188
SWIDTH 916 0
DWIDTH 59 0
BBX 51 46 4 -1
BITMAP
07800000030000
7F800000078000
FF8000000F8000
FF8000001F8000
678000001F0000
078000003E0000
078000007E0000
078000007C0000
07800000F80000
07800001F80000
07800001F00000
07800003E00000
07800007E00000
07800007C00000
0780000F800000
0780001F800000
0780001F000000
0780003E000000
0780007E007800
0780007C01FC00
078000F803FC00
078001F80FFC00
078001F01FBC00
7FFC03E03F3C00
FFFE07E03E3C00
FFFE0FC07C3C00
FFFC0F80F83C00
00001F81F03C00
00003F01E03C00
00003E03E03C00
00007C03C03C00
0000FC07C03C00
0000F807C03C00
0001F007803C00
0003F007803C00
0003E007FFFFC0
0007C007FFFFE0
000FC007FFFFE0
000F8007FFFFC0
001F0000003C00
003F0000003C00
003E0000003C00
007C0000003C00
007C0000003C00
00780000001C00
00300000000000
ENDCHAR
STARTCHAR onehalf
ENCODING 189
SWIDTH 916 0
DWIDTH 59 0
BBX 51 46 3 -1
BITMAP
03800000070000
7FC000000F0000
FFC000000F0000
FFC000001F0000
77C000003E0000
07C000003E0000
07C000007C0000
07C00000F80000
07C00000F80000
07C00001F00000
07C00003E00000
07C00007E00000
07C00007C00000
07C0000F800000
07C0001F800000
07C0001F000000
07C0003E000000
07C0007E000000
07C0007C7FFC00
07C000F8FFFF00
07C001F8FFFF80
07C001F07FFFC0
07C003E0000FC0
7FFC07E00007C0
FFFE07C00003E0
FFFE0F800003E0
7FFE1F800003C0
00001F000007C0
00003E00000FC0
00007E00001F80
00007C00007F00
0000F80000FE00
0001F80003FC00
0001F00007F000
0003E0001FC000
0007E0003F0000
0007C0007E0000
000F8000F80000
001F8000F00000
001F0000F00000
003E0001F00000
007E0001FFFFC0
007C0001FFFFE0
00F80000FFFFE0
00F00000FFFFE0
00700000000000
ENDCHAR
STARTCHAR threequarters
ENCODING 190
SWIDTH 916 0
DWIDTH 59 0
BBX 54 46 2 -1
BITMAP
00000000006000
3FFF800000F000
7FFFC00001F000
7FFFC00001F000
3FFF800003F000
003E000007E000
00FC000007C000
03F000000F8000
07E000001F8000
0FFC00001F0000
1FFF00003E0000
0FFFC0007E0000
000FE0007C0000
0003F000F80000
0001F001F80000
0000F801F00000
0000F803E00000
00007807E00000
00007807C00300
0000F80F801F80
0000F81F807FC0
0001F01F00FFC0
0003F03E01FFC0
3FFFE07E03E7C0
7FFFC0FC07C7C0
FFFF00F80F87C0
7FFC01F81F07C0
000003F01E07C0
000003E03E07C0
000007E03C07C0
00000FC07C07C0
00000F807807C0
00001F00F807C0
00003F00F007C0
00003E00F007C0
00007C00FFFFFC
0000FC00FFFFFC
0000F800FFFFFC
0001F0007FFFF8
0003F0000007C0
0003E0000007C0
0007C0000007C0
000FC0000007C0
000F80000007C0
000F0000000380
00070000000000
ENDCHAR
STARTCHAR questiondown
ENCODING 191
SWIDTH 500 0
DWIDTH 32 0
BBX 28 45 3 -13
BITMAP
0000E000
0001F000
0003F000
0003F000
0003F000
0001F000
0000E000
00000000
00000000
00000000
00000000
0001E000
0001E000
0001F000
0003F000
0003F000
0003F000
0007E000
000FE000
001FE000
003FC000
00FF8000
01FF0000
03FE0000
07FC0000
0FF00000
1FE00000
3FC00000
3F800000
7F000000
7E000000
7E000000
7C000000
FC000000
FC000000
7C000000
7E000000
7E000000
7F000000
3FE00000
3FFFFFE0
1FFFFFF0
0FFFFFF0
07FFFFE0
00FFFFE0
ENDCHAR
STARTCHAR Agrave
ENCODING 192
SWIDTH 667 0
DWIDTH 43 0
BBX 39 56 2 0
BITMAP
000E000000
001F800000
001FF00000
001FFE0000
001FFF8000
0007FFE000
0000FFF000
00000FF000
000000F000
0000000000
0000000000
0000780000
0000FC0000
0001FE0000
0003FF0000
0007FF0000
0007FF8000
000FFFC000
001FCFC000
001F8FE000
003F87F000
003F03F000
007E03F800
007E01F800
00FE01FC00
00FC00FC00
01FC007E00
01F8007E00
03F8003E00
03F8003F00
03FF003F00
07FFF01F80
07FFFC1F80
07FFFF0F80
0FFFFFCFC0
0FC0FFEFC0
0FC00FF7E0
1F8003FFE0
1F8000FFE0
1F80007FF0
3F00001FF0
3F00000FF0
3F00000FF0
3E000007F8
7E000003F8
7E000003F8
7E000001F8
7E000001FC
7C000001FC
FC000000FC
FC000000FC
FC000000FC
FC000000FC
FC0000007E
FC0000007C
780000003C
ENDCHAR
STARTCHAR Aacute
ENCODING 193
SWIDTH 667 0
DWIDTH 43 0
BBX 39 56 2 0
BITMAP
000000E000
000007E000
00001FF000
0000FFF000
0003FFF000
001FFFC000
001FFC0000
001FE00000
001E000000
0000000000
0000000000
0000780000
0000FC0000
0001FE0000
0003FF0000
0007FF0000
0007FF8000
000FFFC000
001FCFC000
001F8FE000
003F87F000
003F03F000
007E03F800
007E01F800
00FE01FC00
00FC00FC00
01FC007E00
01F8007E00
03F8003E00
03F8003F00
03FF003F00
07FFF01F80
07FFFC1F80
07FFFF0F80
0FFFFFCFC0
0FC0FFEFC0
0FC00FF7E0
1F8003FFE0
1F8000FFE0
1F80007FF0
3F00001FF0
3F00000FF0
3F00000FF0
3E000007F8
7E000003F8
7E000003F8
7E000001F8
7E000001FC
7C000001FC
FC000000FC
FC000000FC
FC000000FC
FC000000FC
FC0000007E
FC0000007C
780000003C
ENDCHAR
STARTCHAR Acircumflex
ENCODING 194
SWIDTH 667 0
DWIDTH 43 0
BBX 39 57 2 0
BITMAP
0000380000
0000FC0000
0000FE0000
0001FF0000
0003EF8000
0007CFC000
000FC7E000
001F83F000
003F01F800
003E00F800
0000000000
0000000000
0000780000
0000FC0000
0001FE0000
0003FF0000
0007FF0000
0007FF8000
000FFFC000
001FCFC000
001F8FE000
003F87F000
003F03F000
007E03F800
007E01F800
00FE01FC00
00FC00FC00
01FC007E00
01F8007E00
03F8003E00
03F8003F00
03FF003F00
07FFF01F80
07FFFC1F80
07FFFF0F80
0FFFFFCFC0
0FC0FFEFC0
0FC00FF7E0
1F8003FFE0
1F8000FFE0
1F80007FF0
3F00001FF0
3F00000FF0
3F00000FF0
3E000007F8
7E000003F8
7E000003F8
7E000001F8
7E000001FC
7C000001FC
FC000000FC
FC000000FC
FC000000FC
FC000000FC
FC0000007E
FC0000007C
780000003C
ENDCHAR
STARTCHAR Atilde
ENCODING 195
SWIDTH 667 0
DWIDTH 43 0
BBX 39 56 2 0
BITMAP
0000000400
000FC00C00
001FF81C00
003FFFFC00
007FFFFC00
007FFFF800
00F03FF000
00E007E000
0000000000
0000000000
0000000000
0000780000
0000FC0000
0001FE0000
0003FF0000
0007FF0000
0007FF8000
000FFFC000
001FCFC000
001F8FE000
003F87F000
003F03F000
007E03F800
007E01F800
00FE01FC00
00FC00FC00
01FC007E00
01F8007E00
03F8003E00
03F8003F00
03FF003F00
07FFF01F80
07FFFC1F80
07FFFF0F80
0FFFFFCFC0
0FC0FFEFC0
0FC00FF7E0
1F8003FFE0
1F8000FFE0
1F80007FF0
3F00001FF0
3F00000FF0
3F00000FF0
3E000007F8
7E000003F8
7E000003F8
7E000001F8
7E000001FC
7C000001FC
FC000000FC
FC000000FC
FC000000FC
FC000000FC
FC0000007E
FC0000007C
780000003C
ENDCHAR
STARTCHAR Adieresis
ENCODING 196
SWIDTH 667 0
DWIDTH 43 0
BBX 39 54 2 0
BITMAP
001C00F000
003E01F800
007F01FC00
007F01FC00
007F01FC00
003E01F800
001C007000
0000000000
0000000000
0000780000
0000FC0000
0001FE0000
0003FF0000
0007FF0000
0007FF8000
000FFFC000
001FCFC000
001F8FE000
003F87F000
003F03F000
007E03F800
007E01F800
00FE01FC00
00FC00FC00
01FC007E00
01F8007E00
03F8003E00
03F8003F00
03FF003F00
07FFF01F80
07FFFC1F80
07FFFF0F80
0FFFFFCFC0
0FC0FFEFC0
0FC00FF7E0
1F8003FFE0
1F8000FFE0
1F80007FF0
3F00001FF0
3F00000FF0
3F00000FF0
3E000007F8
7E000003F8
7E000003F8
7E000001F8
7E000001FC
7C000001FC
FC000000FC
FC000000FC
FC000000FC
FC000000FC
FC0000007E
FC0000007C
780000003C
ENDCHAR
STARTCHAR Aring
ENCODING 197
SWIDTH 667 0
DWIDTH 43 0
BBX 39 59 2 0
BITMAP
00007C0000
0001FF0000
0001FF8000
0003C3C000
000781C000
000701C000
000701C000
000701C000
000781C000
0003C7C000
0001FF8000
0000FF0000
00007C0000
0000000000
0000780000
0000FC0000
0001FE0000
0003FF0000
0007FF0000
0007FF8000
000FFFC000
001FCFC000
001F8FE000
003F87F000
003F03F000
007E03F800
007E01F800
00FE01FC00
00FC00FC00
01FC007E00
01F8007E00
03F8003E00
03F8003F00
03FF003F00
07FFF01F80
07FFFC1F80
07FFFF0F80
0FFFFFCFC0
0FC0FFEFC0
0FC00FF7E0
1F8003FFE0
1F8000FFE0
1F80007FF0
3F00001FF0
3F00000FF0
3F00000FF0
3E000007F8
7E000003F8
7E000003F8
7E000001F8
7E000001FC
7C000001FC
FC000000FC
FC000000FC
FC000000FC
FC000000FC
FC0000007E
FC0000007C
780000003C
ENDCHAR
STARTCHAR AE
ENCODING 198
SWIDTH 944 0
DWIDTH 60 0
BBX 57 44 1 0
BITMAP
00000007FFFFFF00
0000001FFFFFFF80
0000007FFFFFFF80
000001FFFFFFFF80
000003FFFFFFFF00
000007FFF0000000
00001FF3F0000000
00003FC3F0000000
00007F83F0000000
0000FF03F0000000
0000FC03F0000000
0001F803F03FFE00
0003F003FFFFFE00
0007F003FFFFFF00
000FE01FFFFFFE00
000FC0FFFFFFFE00
001F83FFFFF80000
003F0FFFF0000000
003F1FFFF0000000
007E7FE3F0000000
007CFF03F0000000
00FDFC03F0000000
01FFF003F0000000
01FFE003F0000000
03FF8003F0000000
03FF0003F0000000
07FE0003F0000000
07FC0003F0000000
0FF80003F0000000
0FF00003F0000000
1FE00003F0000000
1FC00003F0000000
3FC00003F0000000
3F800003F0000000
3F000003F0000000
7F000003F0000000
7E000003F0000000
7E000003F0000000
FC000003F0000000
FC000003FFFFFF00
FC000003FFFFFF80
F8000003FFFFFF80
F0000001FFFFFF80
70000001FFFFFF00
ENDCHAR
STARTCHAR Ccedilla
ENCODING 199
SWIDTH 611 0
DWIDTH 39 0
BBX 35 56 3 -12
BITMAP
000FFFFF00
007FFFFF80
01FFFFFF80
03FFFFFF80
07FFFFFF00
0FFF000000
1FF0000000
3FC0000000
3F80000000
7F00000000
7F00000000
FE00000000
FE00000000
FC00000000
FC00000000
FC00000000
FC00000000
FC00000000
FC00000000
FC00000000
FC00000000
FC00000000
FC00000000
FC00000000
FE00000000
7E00000000
7E00000000
7F00000000
3F80000000
3F80000000
1FC0000000
1FE0000000
0FE0000000
07F8000000
07FC000000
03FE000000
01FF800000
00FFE00000
007FFC0000
003FFFE000
000FFFFFC0
0003FFFFE0
0001FFFFE0
00003FFFC0
00001FFF80
00001C0000
0000380000
0000380000
00003FE000
00003FF000
000001F800
000000F800
000601F800
0007E3F000
0003FFE000
00007F8000
ENDCHAR
STARTCHAR Egrave
ENCODING 200
SWIDTH 556 0
DWIDTH 36 0
BBX 28 55 5 0
BITMAP
07C00000
07F00000
07FE0000
07FF8000
07FFF000
00FFFC00
000FFC00
0001FC00
00001800
00000000
00000000
FFFFFFE0
FFFFFFF0
FFFFFFF0
FFFFFFF0
FFFFFFF0
F8000000
F8000000
F8000000
F8000000
F8000000
FFFFFFE0
FFFFFFE0
FFFFFFF0
FFFFFFF0
FFFFFFE0
F8000000
F8000000
F8000000
F8000000
F8000000
F8000000
F8000000
F8000000
F8000000
F8000000
F8000000
F8000000
F8000000
F8000000
F8000000
F8000000
F8000000
F8000000
F8000000
F8000000
F8000000
F8000000
F8000000
F8000000
FFFFFFF0
FFFFFFF0
FFFFFFF0
FFFFFFF0
7FFFFFE0
ENDCHAR
STARTCHAR Eacute
ENCODING 201
SWIDTH 556 0
DWIDTH 36 0
BBX 28 55 5 0
BITMAP
00007800
0003F800
000FFC00
007FFC00
03FFF800
07FFC000
0FFE0000
07E00000
07000000
00000000
00000000
FFFFFFE0
FFFFFFF0
FFFFFFF0
FFFFFFF0
FFFFFFF0
F8000000
F8000000
F8000000
F8000000
F8000000
FFFFFFE0
FFFFFFE0
FFFFFFF0
FFFFFFF0
FFFFFFE0
F8000000
F8000000
F8000000
F8000000
F8000000
F8000000
F8000000
F8000000
F8000000
F8000000
F8000000
F8000000
F8000000
F8000000
F8000000
F8000000
F8000000
F8000000
F8000000
F8000000
F8000000
F8000000
F8000000
F8000000
FFFFFFF0
FFFFFFF0
FFFFFFF0
FFFFFFF0
7FFFFFE0
ENDCHAR
STARTCHAR Ecircumflex
ENCODING 202
SWIDTH 556 0
DWIDTH 36 0
BBX 28 56 5 0
BITMAP
000E0000
003F0000
007F8000
00FFC000
00FBE000
01F3F000
03E1F800
07E0FC00
0FC07E00
0F003E00
00000000
00000000
FFFFFFE0
FFFFFFF0
FFFFFFF0
FFFFFFF0
FFFFFFF0
F8000000
F8000000
F8000000
F8000000
F8000000
FFFFFFE0
FFFFFFE0
FFFFFFF0
FFFFFFF0
FFFFFFE0
F8000000
F8000000
F8000000
F8000000
F8000000
F8000000
F8000000
F8000000
F8000000
F8000000
F8000000
F8000000
F8000000
F8000000
F8000000
F8000000
F8000000
F8000000
F8000000
F8000000
F8000000
F8000000
F8000000
F8000000
FFFFFFF0
FFFFFFF0
FFFFFFF0
FFFFFFF0
7FFFFFE0
ENDCHAR
STARTCHAR Edieresis
ENCODING 203
SWIDTH 556 0
DWIDTH 36 0
BBX 28 54 5 0
BITMAP
0F003C00
1F807E00
1FC07E00
1FC07F00
1FC07E00
1F807E00
0F003C00
00000000
00000000
00000000
FFFFFFE0
FFFFFFF0
FFFFFFF0
FFFFFFF0
FFFFFFF0
F8000000
F8000000
F8000000
F8000000
F8000000
FFFFFFE0
FFFFFFE0
FFFFFFF0
FFFFFFF0
FFFFFFE0
F8000000
F8000000
F8000000
F8000000
F8000000
F8000000
F8000000
F8000000
F8000000
F8000000
F8000000
F8000000
F8000000
F8000000
F8000000
F8000000
F8000000
F8000000
F8000000
F8000000
F8000000
F8000000
F8000000
F8000000
FFFFFFF0
FFFFFFF0
FFFFFFF0
FFFFFFF0
7FFFFFE0
ENDCHAR
STARTCHAR Igrave
ENCODING 204
SWIDTH 222 0
DWIDTH 14 0
BBX 17 55 -1 0
BITMAP
700000
FE0000
FF8000
FFF000
FFFC00
3FFF00
03FF80
007F80
000700
000000
000000
03C000
03E000
07E000
07E000
07E000
07E000
07E000
07E000
07E000
07E000
07E000
07E000
07E000
07E000
07E000
07E000
07E000
07E000
07E000
07E000
07E000
07E000
07E000
07E000
07E000
07E000
07E000
07E000
07E000
07E000
07E000
07E000
07E000
07E000
07E000
07E000
07E000
07E000
07E000
07E000
07E000
07E000
03E000
03C000
ENDCHAR
STARTCHAR Iacute
ENCODING 205
SWIDTH 222 0
DWIDTH 14 0
BBX 18 55 -2 0
BITMAP
000780
001F80
00FFC0
07FFC0
1FFF80
7FFE00
FFE000
FF0000
700000
000000
000000
01E000
01F000
03F000
03F000
03F000
03F000
03F000
03F000
03F000
03F000
03F000
03F000
03F000
03F000
03F000
03F000
03F000
03F000
03F000
03F000
03F000
03F000
03F000
03F000
03F000
03F000
03F000
03F000
03F000
03F000
03F000
03F000
03F000
03F000
03F000
03F000
03F000
03F000
03F000
03F000
03F000
03F000
01F000
01E000
ENDCHAR
STARTCHAR Icircumflex
ENCODING 206
SWIDTH 222 0
DWIDTH 14 0
BBX 19 56 -2 0
BITMAP
00E000
03F000
07F800
0FFC00
1FFE00
1F3F00
3E1F80
7E0FC0
FC07C0
F003E0
000000
000000
01E000
01F000
03F000
03F000
03F000
03F000
03F000
03F000
03F000
03F000
03F000
03F000
03F000
03F000
03F000
03F000
03F000
03F000
03F000
03F000
03F000
03F000
03F000
03F000
03F000
03F000
03F000
03F000
03F000
03F000
03F000
03F000
03F000
03F000
03F000
03F000
03F000
03F000
03F000
03F000
03F000
03F000
01F000
01E000
ENDCHAR
STARTCHAR Idieresis
ENCODING 207
SWIDTH 222 0
DWIDTH 14 0
BBX 21 54 -3 0
BITMAP
7801E0
FC03F0
FE03F0
FE07F8
FE03F0
FC03F0
7801E0
000000
000000
000000
00F000
00F800
01F800
01F800
01F800
01F800
01F800
01F800
01F800
01F800
01F800
01F800
01F800
01F800
01F800
01F800
01F800
01F800
01F800
01F800
01F800
01F800
01F800
01F800
01F800
01F800
01F800
01F800
01F800
01F800
01F800
01F800
01F800
01F800
01F800
01F800
01F800
01F800
01F800
01F800
01F800
01F800
00F800
00F000
ENDCHAR
STARTCHAR Eth
ENCODING 208
SWIDTH 667 0
DWIDTH 43 0
BBX 40 45 0 0
BITMAP
01FF000000
07FFF80000
07FFFE0000
07FFFFC000
07FFFFE000
07FFFFF800
07C03FFC00
07C007FF00
07C001FF80
07C0007FC0
07C0003FC0
07C0001FE0
07C0000FF0
07C00007F0
07C00003F8
07C00001FC
07C00001FC
07C00000FC
7FFFF800FE
FFFFFC007E
FFFFFC007E
FFFFFC007E
FFFFFC003F
3FFFF8003F
07C000003F
07C000003F
07C000003F
07C000003F
07C000003F
07C000003F
07C000003F
07C000007F
07C000007E
07C000007E
07C00000FE
07C00000FC
07C00001FC
07C00003F8
07C0000FF8
07C000FFF0
07FFFFFFE0
07FFFFFFC0
07FFFFFF00
07FFFFFC00
07FFFFE000
ENDCHAR
STARTCHAR Ntilde
ENCODING 209
SWIDTH 611 0
DWIDTH 39 0
BBX 31 55 4 0
BITMAP
00000040
007C00E0
01FF81C0
03FFFFC0
03FFFFC0
07FFFF80
0703FF00
06007E00
00000000
00000000
00000000
38000038
7E00007C
7F00007C
FF80007E
FFC0007E
FFE0007E
FFF0007E
FFF8007E
FDFC007E
FDFE007E
FCFF007E
FC7FC07E
FC3FF07E
FC1FFC7E
FC07FFFE
FC03FFFE
FC00FFFE
FC003FFE
FC0003FE
FC00007E
FC00007E
FC00007E
FC00007E
FC00007E
FC00007E
FC00007E
FC00007E
FC00007E
FC00007E
FC00007E
FC00007E
FC00007E
FC00007E
FC00007E
FC00007E
FC00007E
FC00007E
FC00007E
FC00007E
FC00007E
FC00007E
FC00007C
7C00007C
38000038
ENDCHAR
STARTCHAR Ograve
ENCODING 210
SWIDTH 722 0
DWIDTH 46 0
BBX 41 57 3 -1
BITMAP
000700000000
000FC0000000
000FF8000000
000FFE000000
000FFFC00000
0003FFF00000
00007FF80000
000007F80000
000000F00000
000000000000
000000000000
0000FF000000
0007FFE00000
001FFFF80000
007FFFFE0000
00FFFFFF0000
01FFC3FF8000
03FE007FC000
07F8001FE000
0FF0000FF000
1FE00007F800
1FC00003F800
3F800001FC00
3F800000FC00
7F000000FE00
7F0000007E00
7E0000007E00
FE0000007F00
FE0000003F00
FC0000003F00
FC0000003F00
FC0000003F00
FC0000003F80
FC0000003F80
FC0000003F80
FC0000003F80
FC0000003F00
FC0000003F00
FC0000003F00
FE0000003F00
FE0000007F00
7E0000007E00
7F0000007E00
7F000000FE00
3F000000FC00
3F800001FC00
1FC00003F800
1FE00007F800
0FF0000FF000
07F8001FE000
03FE007FE000
03FFC3FFC000
00FFFFFF0000
007FFFFE0000
001FFFFC0000
0007FFF00000
0001FF800000
ENDCHAR
STARTCHAR Oacute
ENCODING 211
SWIDTH 722 0
DWIDTH 46 0
BBX 41 57 3 -1
BITMAP
000000600000
000003F00000
00001FF00000
00007FF80000
0003FFF00000
000FFFE00000
001FFE000000
001FF0000000
000F00000000
000000000000
000000000000
0000FF000000
0007FFE00000
001FFFF80000
007FFFFE0000
00FFFFFF0000
01FFC3FF8000
03FE007FC000
07F8001FE000
0FF0000FF000
1FE00007F800
1FC00003F800
3F800001FC00
3F800000FC00
7F000000FE00
7F0000007E00
7E0000007E00
FE0000007F00
FE0000003F00
FC0000003F00
FC0000003F00
FC0000003F00
FC0000003F80
FC0000003F80
FC0000003F80
FC0000003F80
FC0000003F00
FC0000003F00
FC0000003F00
FE0000003F00
FE0000007F00
7E0000007E00
7F0000007E00
7F000000FE00
3F000000FC00
3F800001FC00
1FC00003F800
1FE00007F800
0FF0000FF000
07F8001FE000
03FE007FE000
03FFC3FFC000
00FFFFFF0000
007FFFFE0000
001FFFFC0000
0007FFF00000
0001FF800000
ENDCHAR
STARTCHAR Ocircumflex
ENCODING 212
SWIDTH 722 0
DWIDTH 46 0
BBX 41 58 3 -1
BITMAP
00001C000000
00007E000000
0000FF000000
0001FF800000
0003FFC00000
0003E7E00000
0007C3F00000
000FC1F80000
001F80F80000
001E007C0000
000000000000
000000000000
0000FF000000
0007FFE00000
001FFFF80000
007FFFFE0000
00FFFFFF0000
01FFC3FF8000
03FE007FC000
07F8001FE000
0FF0000FF000
1FE00007F800
1FC00003F800
3F800001FC00
3F800000FC00
7F000000FE00
7F0000007E00
7E0000007E00
FE0000007F00
FE0000003F00
FC0000003F00
FC0000003F00
FC0000003F00
FC0000003F80
FC0000003F80
FC0000003F80
FC0000003F80
FC0000003F00
FC0000003F00
FC0000003F00
FE0000003F00
FE0000007F00
7E0000007E00
7F0000007E00
7F000000FE00
3F000000FC00
3F800001FC00
1FC00003F800
1FE00007F800
0FF0000FF000
07F8001FE000
03FE007FE000
03FFC3FFC000
00FFFFFF0000
007FFFFE0000
001FFFFC0000
0007FFF00000
0001FF800000
ENDCHAR
STARTCHAR Otilde
ENCODING 213
SWIDTH 722 0
DWIDTH 46 0
BBX 41 56 3 -1
BITMAP
0007C0060000
000FFC0E0000
001FFFBE0000
003FFFFC0000
003FFFFC0000
00701FF80000
007003E00000
000000000000
000000000000
000000000000
0000FF000000
0007FFE00000
001FFFF80000
007FFFFE0000
00FFFFFF0000
01FFC3FF8000
03FE007FC000
07F8001FE000
0FF0000FF000
1FE00007F800
1FC00003F800
3F800001FC00
3F800000FC00
7F000000FE00
7F0000007E00
7E0000007E00
FE0000007F00
FE0000003F00
FC0000003F00
FC0000003F00
FC0000003F00
FC0000003F80
FC0000003F80
FC0000003F80
FC0000003F80
FC0000003F00
FC0000003F00
FC0000003F00
FE0000003F00
FE0000007F00
7E0000007E00
7F0000007E00
7F000000FE00
3F000000FC00
3F800001FC00
1FC00003F800
1FE00007F800
0FF0000FF000
07F8001FE000
03FE007FE000
03FFC3FFC000
00FFFFFF0000
007FFFFE0000
001FFFFC0000
0007FFF00000
0001FF800000
ENDCHAR
STARTCHAR Odieresis
ENCODING 214
SWIDTH 722 0
DWIDTH 46 0
BBX 41 55 3 -1
BITMAP
001E00780000
003F00FC0000
003F80FC0000
003F81FE0000
003F80FC0000
003F00FC0000
001E00780000
000000000000
000000000000
0000FF000000
0007FFE00000
001FFFF80000
007FFFFE0000
00FFFFFF0000
01FFC3FF8000
03FE007FC000
07F8001FE000
0FF0000FF000
1FE00007F800
1FC00003F800
3F800001FC00
3F800000FC00
7F000000FE00
7F0000007E00
7E0000007E00
FE0000007F00
FE0000003F00
FC0000003F00
FC0000003F00
FC0000003F00
FC0000003F80
FC0000003F80
FC0000003F80
FC0000003F80
FC0000003F00
FC0000003F00
FC0000003F00
FE0000003F00
FE0000007F00
7E0000007E00
7F0000007E00
7F000000FE00
3F000000FC00
3F800001FC00
1FC00003F800
1FE00007F800
0FF0000FF000
07F8001FE000
03FE007FE000
03FFC3FFC000
00FFFFFF0000
007FFFFE0000
001FFFFC0000
0007FFF00000
0001FF800000
ENDCHAR
STARTCHAR multiply
ENCODING 215
SWIDTH 600 0
DWIDTH 38 0
BBX 32 33 3 0
BITMAP
10000008
3800001C
7C00003E
FE00007F
7F0000FF
3F8001FE
1FC003FC
0FE007F8
07F00FF0
03F81FE0
01FC3FC0
00FE7F80
007FFF00
007FFE00
003FFC00
001FF800
000FF000
000FF800
001FFC00
003FFE00
007FFF00
00FE7F80
01FC3FC0
03F81FE0
07F00FF0
0FE007F8
1FC003FC
3F8001FE
7F0000FF
FE00007F
7C00003E
3800001C
10000008
ENDCHAR
STARTCHAR Oslash
ENCODING 216
SWIDTH 722 0
DWIDTH 46 0
BBX 41 56 3 -7
BITMAP
000000038000
00000007C000
000000078000
0000000F8000
0000FF0F8000
0007FFFF0000
001FFFFF0000
007FFFFE0000
00FFFFFF0000
01FFC3FF8000
03FE007FC000
07F800FFE000
0FF000FFF000
1FE000F7F800
1FC001F3F800
3F8001E1FC00
3F8003E0FC00
7F0003C0FE00
7F0007C07E00
7E0007C07E00
FE000F807F00
FE000F803F00
FC001F003F00
FC001F003F00
FC003E003F00
FC003E003F80
FC003C003F80
FC007C003F80
FC0078003F80
FC00F8003F00
FC00F0003F00
FC01F0003F00
FE01F0003F00
FE03E0007F00
7E03E0007E00
7F07C0007E00
7F07C000FE00
3F8F8000FC00
3F8F8001FC00
1FDF0003F800
1FFF0007F800
0FFE000FF000
07FE001FE000
03FE007FE000
03FFC3FFC000
00FFFFFF0000
00FFFFFE0000
00FFFFFC0000
01F7FFF00000
01F0FF800000
03E000000000
03E000000000
07C000000000
07C000000000
078000000000
078000000000
ENDCHAR
STARTCHAR Ugrave
ENCODING 217
SWIDTH 611 0
DWIDTH 39 0
BBX 35 56 2 -1
BITMAP
003C000000
007F000000
007FE00000
007FF80000
007FFF0000
000FFFC000
0001FFC000
00001FC000
000003C000
0000000000
0000000000
0700001C00
0F80003E00
0F80003E00
0F80003E00
1F80003F00
1F80003F00
1F80003F00
1F80003F00
1F00001F00
1F00001F00
1F00001F00
1F00001F00
3F00001F80
3F00001F80
3F00001F80
3E00000F80
3E00000F80
3E00000F80
3E00000F80
3E00000FC0
7E00000FC0
7E00000FC0
7C000007C0
7C000007C0
7C000007C0
7C000007C0
7C000007C0
FC000007E0
FC000007E0
FC000007E0
FC000007E0
FC000007E0
FE00000FC0
7E00000FC0
7F00001FC0
7F00001FC0
3F80003F80
3FE000FF80
1FF803FF00
0FFFFFFE00
07FFFFFC00
03FFFFF800
00FFFFE000
003FFF8000
0007FC0000
ENDCHAR
STARTCHAR Uacute
ENCODING 218
SWIDTH 611 0
DWIDTH 39 0
BBX 35 56 2 -1
BITMAP
0000038000
00001FC000
0000FFC000
0003FFC000
001FFFC000
007FFE0000
007FF00000
007F000000
0038000000
0000000000
0000000000
0700001C00
0F80003E00
0F80003E00
0F80003E00
1F80003F00
1F80003F00
1F80003F00
1F80003F00
1F00001F00
1F00001F00
1F00001F00
1F00001F00
3F00001F80
3F00001F80
3F00001F80
3E00000F80
3E00000F80
3E00000F80
3E00000F80
3E00000FC0
7E00000FC0
7E00000FC0
7C000007C0
7C000007C0
7C000007C0
7C000007C0
7C000007C0
FC000007E0
FC000007E0
FC000007E0
FC000007E0
FC000007E0
FE00000FC0
7E00000FC0
7F00001FC0
7F00001FC0
3F80003F80
3FE000FF80
1FF803FF00
0FFFFFFE00
07FFFFFC00
03FFFFF800
00FFFFE000
003FFF8000
0007FC0000
ENDCHAR
STARTCHAR Ucircumflex
ENCODING 219
SWIDTH 611 0
DWIDTH 39 0
BBX 35 57 2 -1
BITMAP
0000E00000
0001F80000
0003FC0000
0007FC0000
000FBE0000
001F9F0000
003F1F8000
007E0FC000
00FC07E000
00F803E000
0000000000
0000000000
0700001C00
0F80003E00
0F80003E00
0F80003E00
1F80003F00
1F80003F00
1F80003F00
1F80003F00
1F00001F00
1F00001F00
1F00001F00
1F00001F00
3F00001F80
3F00001F80
3F00001F80
3E00000F80
3E00000F80
3E00000F80
3E00000F80
3E00000FC0
7E00000FC0
7E00000FC0
7C000007C0
7C000007C0
7C000007C0
7C000007C0
7C000007C0
FC000007E0
FC000007E0
FC000007E0
FC000007E0
FC000007E0
FE00000FC0
7E00000FC0
7F00001FC0
7F00001FC0
3F80003F80
3FE000FF80
1FF803FF00
0FFFFFFE00
07FFFFFC00
03FFFFF800
00FFFFE000
003FFF8000
0007FC0000
ENDCHAR
STARTCHAR Udieresis
ENCODING 220
SWIDTH 611 0
DWIDTH 39 0
BBX 35 55 2 -1
BITMAP
007001C000
00FC03E000
01FC07F000
01FC07F000
01FC07F000
00FC03E000
007801C000
0000000000
0000000000
0000000000
0700001C00
0F80003E00
0F80003E00
0F80003E00
1F80003F00
1F80003F00
1F80003F00
1F80003F00
1F00001F00
1F00001F00
1F00001F00
1F00001F00
3F00001F80
3F00001F80
3F00001F80
3E00000F80
3E00000F80
3E00000F80
3E00000F80
3E00000FC0
7E00000FC0
7E00000FC0
7C000007C0
7C000007C0
7C000007C0
7C000007C0
7C000007C0
FC000007E0
FC000007E0
FC000007E0
FC000007E0
FC000007E0
FE00000FC0
7E00000FC0
7F00001FC0
7F00001FC0
3F80003F80
3FE000FF80
1FF803FF00
0FFFFFFE00
07FFFFFC00
03FFFFF800
00FFFFE000
003FFF8000
0007FC0000
ENDCHAR
STARTCHAR Yacute
ENCODING 221
SWIDTH 556 0
DWIDTH 36 0
BBX 32 55 2 0
BITMAP
00000700
00003F80
0001FF80
0007FF80
003FFF80
00FFFC00
00FFE000
00FE0000
00700000
00000000
00000000
7000001E
F800001F
FC00003F
FC00003F
FC00007F
FE00007E
7E00007E
7E0000FE
7F0000FC
3F0001FC
3F8001F8
1F8003F8
1FC007F0
0FE007E0
07F00FE0
07F81FC0
03F83F80
01FE7F80
00FFFF00
007FFE00
003FFC00
001FF800
000FF000
0007E000
0007E000
0007E000
0007E000
0007E000
0007E000
0007E000
0007E000
0007E000
0007E000
0007E000
0007E000
0007E000
0007E000
0007E000
0007E000
0007E000
0007E000
0007E000
0007C000
00038000
ENDCHAR
STARTCHAR Thorn
ENCODING 222
SWIDTH 556 0
DWIDTH 36 0
BBX 30 44 5 0
BITMAP
78000000
F8000000
FC000000
FC000000
FC000000
FC000000
FC000000
FC000000
FFFFFF80
FFFFFFE0
FFFFFFF0
FFFFFFF8
FFFFFFFC
FC0003FC
FC0000FC
FC0000FC
FC0000FC
FC0000FC
FC0000FC
FC0001FC
FC0003F8
FC000FF8
FC003FF0
FC00FFE0
FC07FFC0
FC7FFF00
FFFFFC00
FFFFF000
FFFFC000
FFFE0000
FFE00000
FE000000
FC000000
FC000000
FC000000
FC000000
FC000000
FC000000
FC000000
FC000000
FC000000
FC000000
F8000000
78000000
ENDCHAR
STARTCHAR germandbls
ENCODING 223
SWIDTH 556 0
DWIDTH 36 0
BBX 32 44 2 0
BITMAP
003FE000
01FFFC00
03FFFE00
07FFFF00
0FFFFF00
0FE03F80
0FC01F80
0F801F80
0F803F00
0F80FF00
7F81FE00
FF87FC00
FF8FF800
FF9FE000
FF9FC000
0FBF8000
0FBF0000
0FBE0000
0FBF0000
0FBFE000
0F9FF800
0F8FFF00
0F87FFC0
0F83FFF0
0F807FF8
0F801FFC
0F8003FE
0F8000FF
0F80007F
0F80003F
0F80003F
0F80001F
0F80001F
0F80001F
0F80003F
0F80003F
0F80007F
0F8000FE
0F800FFE
0FFFFFFC
0FFFFFF8
0FFFFFF0
0FFFFFC0
0FFFFE00
ENDCHAR
STARTCHAR agrave
ENCODING 224
SWIDTH 500 0
DWIDTH 32 0
BBX 27 47 1 -1
BITMAP
01C00000
01F80000
03FE0000
03FFC000
03FFF800
00FFFE00
000FFE00
0001FE00
00001E00
00000000
00000000
00000000
00000000
1FFFF800
3FFFFE00
3FFFFF00
3FFFFF80
1FFFFFC0
00001FC0
000007E0
000007E0
000007E0
000003E0
000003E0
0000FFE0
003FFFE0
01FFFFE0
07FFFFE0
0FFFF3E0
1FF803E0
3FC003E0
7F0003E0
7E0003E0
FC0003E0
FC0003E0
FC0007E0
FC0007E0
FC0007E0
FC0007E0
FC000FE0
FE000FE0
7F003FE0
7FF3FFE0
3FFFFFE0
1FFFF3E0
07FFE1C0
00FF0000
ENDCHAR
STARTCHAR aacute
ENCODING 225
SWIDTH 500 0
DWIDTH 32 0
BBX 27 47 1 -1
BITMAP
00001C00
0000FE00
0003FE00
001FFE00
007FFE00
01FFF800
03FF8000
03FC0000
03C00000
00000000
00000000
00000000
00000000
1FFFF800
3FFFFE00
3FFFFF00
3FFFFF80
1FFFFFC0
00001FC0
000007E0
000007E0
000007E0
000003E0
000003E0
0000FFE0
003FFFE0
01FFFFE0
07FFFFE0
0FFFF3E0
1FF803E0
3FC003E0
7F0003E0
7E0003E0
FC0003E0
FC0003E0
FC0007E0
FC0007E0
FC0007E0
FC0007E0
FC000FE0
FE000FE0
7F003FE0
7FF3FFE0
3FFFFFE0
1FFFF3E0
07FFE1C0
00FF0000
ENDCHAR
STARTCHAR acircumflex
ENCODING 226
SWIDTH 500 0
DWIDTH 32 0
BBX 27 48 1 -1
BITMAP
00070000
000FC000
001FE000
003FE000
007DF000
00FCF800
01F8FC00
03F07E00
07E03F00
07C01F00
00000000
00000000
00000000
00000000
1FFFF800
3FFFFE00
3FFFFF00
3FFFFF80
1FFFFFC0
00001FC0
000007E0
000007E0
000007E0
000003E0
000003E0
0000FFE0
003FFFE0
01FFFFE0
07FFFFE0
0FFFF3E0
1FF803E0
3FC003E0
7F0003E0
7E0003E0
FC0003E0
FC0003E0
FC0007E0
FC0007E0
FC0007E0
FC0007E0
FC000FE0
FE000FE0
7F003FE0
7FF3FFE0
3FFFFFE0
1FFFF3E0
07FFE1C0
00FF0000
ENDCHAR
STARTCHAR atilde
ENCODING 227
SWIDTH 500 0
DWIDTH 32 0
BBX 27 47 1 -1
BITMAP
00000080
00F801C0
03FF0380
07FFFF80
07FFFF80
0FFFFF00
0E07FE00
0C00FC00
00000000
00000000
00000000
00000000
00000000
1FFFF800
3FFFFE00
3FFFFF00
3FFFFF80
1FFFFFC0
00001FC0
000007E0
000007E0
000007E0
000003E0
000003E0
0000FFE0
003FFFE0
01FFFFE0
07FFFFE0
0FFFF3E0
1FF803E0
3FC003E0
7F0003E0
7E0003E0
FC0003E0
FC0003E0
FC0007E0
FC0007E0
FC0007E0
FC0007E0
FC000FE0
FE000FE0
7F003FE0
7FF3FFE0
3FFFFFE0
1FFFF3E0
07FFE1C0
00FF0000
ENDCHAR
STARTCHAR adieresis
ENCODING 228
SWIDTH 500 0
DWIDTH 32 0
BBX 27 45 1 -1
BITMAP
03800E00
07E01F00
0FE03F80
0FE03F80
0FE03F80
07E01F00
03C00E00
00000000
00000000
00000000
00000000
1FFFF800
3FFFFE00
3FFFFF00
3FFFFF80
1FFFFFC0
00001FC0
000007E0
000007E0
000007E0
000003E0
000003E0
0000FFE0
003FFFE0
01FFFFE0
07FFFFE0
0FFFF3E0
1FF803E0
3FC003E0
7F0003E0
7E0003E0
FC0003E0
FC0003E0
FC0007E0
FC0007E0
FC0007E0
FC0007E0
FC000FE0
FE000FE0
7F003FE0
7FF3FFE0
3FFFFFE0
1FFFF3E0
07FFE1C0
00FF0000
ENDCHAR
STARTCHAR aring
ENCODING 229
SWIDTH 500 0
DWIDTH 32 0
BBX 27 51 1 -1
BITMAP
000F8000
003FE000
007FF000
0078F000
00F07800
00E03800
00E03800
00E03800
00E03800
00F07800
0078F000
007FF000
003FE000
000F8000
00000000
00000000
00000000
1FFFF800
3FFFFE00
3FFFFF00
3FFFFF80
1FFFFFC0
00001FC0
000007E0
000007E0
000007E0
000003E0
000003E0
0000FFE0
003FFFE0
01FFFFE0
07FFFFE0
0FFFF3E0
1FF803E0
3FC003E0
7F0003E0
7E0003E0
FC0003E0
FC0003E0
FC0007E0
FC0007E0
FC0007E0
FC0007E0
FC000FE0
FE000FE0
7F003FE0
7FF3FFE0
3FFFFFE0
1FFFF3E0
07FFE1C0
00FF0000
ENDCHAR
STARTCHAR ae
ENCODING 230
SWIDTH 833 0
DWIDTH 53 0
BBX 50 35 1 -1
BITMAP
00000000FF0000
0FFFF803FFE000
1FFFFE0FFFF000
1FFFFF1FFFF800
1FFFFFBFFFFC00
1FFFFFFF81FE00
00001FFE007F00
00000FFC003F00
000007F8001F80
000007F8001F80
000007F0000F80
000007F0000F80
000007F0000F80
0003FFFFFFFF80
007FFFFFFFFF80
01FFFFFFFFFF80
07FFFFFFFFFF80
0FFF87E0000000
1FF007E0000000
3FC007E0000000
7F0007E0000000
7E0007E0000000
7E0007F0000000
7C0007F0000000
FC0007F8000000
FC0007F8000000
7C0007FC000000
7E0007FE000000
7F0007FF800000
7FC01FFFFFFF80
3FFFFF9FFFFFC0
1FFFFF9FFFFFC0
0FFFFF07FFFFC0
07FFFC01FFFF80
00FFE000000000
ENDCHAR
STARTCHAR ccedilla
ENCODING 231
SWIDTH 500 0
DWIDTH 32 0
BBX 30 45 2 -12
BITMAP
003FFFE0
01FFFFF0
03FFFFF0
07FFFFF0
0FFFFFE0
1FF00000
3FC00000
3F800000
7F000000
7E000000
7E000000
7E000000
7E000000
FE000000
FE000000
7E000000
7E000000
7E000000
7E000000
7E000000
3F000000
3F000000
3F800000
1FC00000
0FE00000
0FF00000
07FC0000
03FF8000
01FFFFF8
00FFFFF8
003FFFFC
000FFFF8
0001FFF0
0001C000
0001C000
0001C000
0001FC00
0003FF00
00003F80
00000F80
00000F80
00300F80
003E3F80
001FFF00
0007FC00
ENDCHAR
STARTCHAR egrave
ENCODING 232
SWIDTH 556 0
DWIDTH 36 0
BBX 30 46 3 0
BITMAP
01F00000
01FE0000
01FF8000
01FFF000
00FFFE00
001FFF00
0001FF00
00003F00
00000000
00000000
00000000
00000000
000FF000
00FFFE00
01FFFF00
07FFFFC0
0FFFFFE0
1FF01FE0
3FC007F0
3F8003F8
7F0001F8
7E0000F8
7E0000FC
FC0000FC
FC0000FC
FFFFFFFC
FFFFFFFC
FFFFFFFC
FFFFFFFC
FC000000
FC000000
FC000000
FC000000
FC000000
FC000000
7E000000
7E000000
7F000000
3F800000
3FC00000
1FF00000
0FFFFFF8
07FFFFFC
03FFFFFC
00FFFFFC
001FFFF8
ENDCHAR
STARTCHAR eacute
ENCODING 233
SWIDTH 556 0
DWIDTH 36 0
BBX 30 47 3 0
BITMAP
00000400
00003E00
0001FE00
0007FF00
003FFF00
00FFFE00
01FFE000
03FF0000
01F00000
00000000
00000000
00000000
00000000
000FF000
00FFFE00
01FFFF00
07FFFFC0
0FFFFFE0
1FF01FE0
3FC007F0
3F8003F8
7F0001F8
7E0000F8
7E0000FC
FC0000FC
FC0000FC
FFFFFFFC
FFFFFFFC
FFFFFFFC
FFFFFFFC
FC000000
FC000000
FC000000
FC000000
FC000000
FC000000
7E000000
7E000000
7F000000
3F800000
3FC00000
1FF00000
0FFFFFF8
07FFFFFC
03FFFFFC
00FFFFFC
001FFFF8
ENDCHAR
STARTCHAR ecircumflex
ENCODING 234
SWIDTH 556 0
DWIDTH 36 0
BBX 30 47 3 0
BITMAP
0007C000
000FE000
001FE000
003FF000
007EF800
00FC7C00
01F87E00
01F03F00
03E01F80
03C00780
00000000
00000000
00000000
000FF000
00FFFE00
01FFFF00
07FFFFC0
0FFFFFE0
1FF01FE0
3FC007F0
3F8003F8
7F0001F8
7E0000F8
7E0000FC
FC0000FC
FC0000FC
FFFFFFFC
FFFFFFFC
FFFFFFFC
FFFFFFFC
FC000000
FC000000
FC000000
FC000000
FC000000
FC000000
7E000000
7E000000
7F000000
3F800000
3FC00000
1FF00000
0FFFFFF8
07FFFFFC
03FFFFFC
00FFFFFC
001FFFF8
ENDCHAR
STARTCHAR edieresis
ENCODING 235
SWIDTH 556 0
DWIDTH 36 0
BBX 30 44 3 0
BITMAP
03C00F00
07E01F80
07F01F80
07F01FC0
07F01F80
07E01F80
03C00F00
00000000
00000000
00000000
000FF000
00FFFE00
01FFFF00
07FFFFC0
0FFFFFE0
1FF01FE0
3FC007F0
3F8003F8
7F0001F8
7E0000F8
7E0000FC
FC0000FC
FC0000FC
FFFFFFFC
FFFFFFFC
FFFFFFFC
FFFFFFFC
FC000000
FC000000
FC000000
FC000000
FC000000
FC000000
7E000000
7E000000
7F000000
3F800000
3FC00000
1FF00000
0FFFFFF8
07FFFFFC
03FFFFFC
00FFFFFC
001FFFF8
ENDCHAR
STARTCHAR igrave
ENCODING 236
SWIDTH 222 0
DWIDTH 14 0
BBX 17 46 -1 0
BITMAP
600000
FC0000
FF0000
FFE000
FFF800
7FFF00
07FF80
00FF80
000F00
000000
000000
000000
000000
03C000
03E000
07E000
07E000
07E000
07E000
07E000
07E000
07E000
07E000
07E000
07E000
07E000
07E000
07E000
07E000
07E000
07E000
07E000
07E000
07E000
07E000
07E000
07E000
07E000
07E000
07E000
07E000
07E000
07E000
07E000
03E000
03C000
ENDCHAR
STARTCHAR iacute
ENCODING 237
SWIDTH 222 0
DWIDTH 14 0
BBX 18 46 -2 0
BITMAP
000300
001F80
007F80
03FFC0
0FFFC0
7FFF00
FFF800
FF8000
780000
000000
000000
000000
000000
01E000
01F000
03F000
03F000
03F000
03F000
03F000
03F000
03F000
03F000
03F000
03F000
03F000
03F000
03F000
03F000
03F000
03F000
03F000
03F000
03F000
03F000
03F000
03F000
03F000
03F000
03F000
03F000
03F000
03F000
03F000
01F000
01E000
ENDCHAR
STARTCHAR icircumflex
ENCODING 238
SWIDTH 222 0
DWIDTH 14 0
BBX 19 46 -2 0
BITMAP
01F000
03F800
07F800
0FFC00
1FBE00
3F3F00
7E1F80
FC0FC0
F807E0
F001E0
000000
000000
000000
01E000
01F000
03F000
03F000
03F000
03F000
03F000
03F000
03F000
03F000
03F000
03F000
03F000
03F000
03F000
03F000
03F000
03F000
03F000
03F000
03F000
03F000
03F000
03F000
03F000
03F000
03F000
03F000
03F000
03F000
03F000
01F000
01E000
ENDCHAR
STARTCHAR idieresis
ENCODING 239
SWIDTH 222 0
DWIDTH 14 0
BBX 21 44 -3 0
BITMAP
7801E0
FC03F0
FE03F0
FE07F8
FE03F0
FC03F0
7801E0
000000
000000
000000
000000
00F000
00F800
01F800
01F800
01F800
01F800
01F800
01F800
01F800
01F800
01F800
01F800
01F800
01F800
01F800
01F800
01F800
01F800
01F800
01F800
01F800
01F800
01F800
01F800
01F800
01F800
01F800
01F800
01F800
01F800
01F800
00F800
00F000
ENDCHAR
STARTCHAR eth
ENCODING 240
SWIDTH 556 0
DWIDTH 36 0
BBX 30 47 3 -1
BITMAP
00000700
0F800F80
0FF03F80
1FFE7F00
0FFFFE00
07FFF800
00FFF000
001FF800
007FFC00
00FFFE00
01FCFF00
03F07F00
01E03F80
00801FC0
00000FC0
000007E0
003F87E0
01FFE3F0
03FFF3F0
07FFFBF0
0FFFFDF8
1FE01FF8
3F800FF8
3F0007F8
7E0003F8
7E0001FC
FC0001FC
FC0000FC
FC0000FC
FC0000FC
F80000FC
F80000FC
F80000FC
FC0000FC
FC0000F8
FC0000F8
FC0001F8
7E0001F0
7E0003F0
3F0007F0
3F800FE0
1FE01FC0
0FFFFF80
07FFFF80
03FFFE00
00FFFC00
001FE000
ENDCHAR
STARTCHAR ntilde
ENCODING 241
SWIDTH 556 0
DWIDTH 36 0
BBX 27 46 4 0
BITMAP
00000380
03FC0380
07FF8780
0FFFFF00
0FFFFF00
1E1FFE00
1C03FC00
18000000
00000000
00000000
00000000
00000000
001FE000
707FFC00
F8FFFE00
F9FFFF00
FBFFFF80
FFF87FC0
FFC01FC0
FF800FE0
FF0007E0
FE0007E0
FE0007E0
FC0007E0
FC0003E0
FC0003E0
FC0003E0
FC0003E0
FC0003E0
FC0003E0
FC0003E0
FC0003E0
FC0003E0
FC0003E0
FC0003E0
FC0003E0
FC0003E0
FC0003E0
FC0003E0
FC0003E0
FC0003E0
FC0003E0
FC0003E0
FC0003E0
7C0003E0
780001C0
ENDCHAR
STARTCHAR ograve
ENCODING 242
SWIDTH 556 0
DWIDTH 36 0
BBX 31 48 2 -1
BITMAP
00400000
00F80000
01FF0000
01FFC000
01FFF800
00FFFE00
000FFF00
0001FF80
00001F00
00000000
00000000
00000000
00000000
000FE000
007FFC00
00FFFF00
03FFFF80
07FFFFC0
0FF81FE0
0FE007F0
1FC003F0
3F8001F8
3F0001F8
3F0000FC
7E0000FC
7E00007E
7C00007E
7C00007E
FC00007E
FC00007E
FC00003E
FC00007E
FC00007E
7C00007E
7C00007E
7E00007E
7E0000FC
3F0000FC
3F0001FC
3F8001F8
1FC003F8
0FE007F0
0FF81FE0
07FFFFC0
03FFFF80
01FFFF00
007FFC00
000FE000
ENDCHAR
STARTCHAR oacute
ENCODING 243
SWIDTH 556 0
DWIDTH 36 0
BBX 31 47 2 -1
BITMAP
00001F00
0000FF00
0007FF00
001FFF00
00FFFE00
01FFF000
01FF0000
01F80000
00800000
00000000
00000000
00000000
000FE000
007FFC00
00FFFF00
03FFFF80
07FFFFC0
0FF81FE0
0FE007F0
1FC003F0
3F8001F8
3F0001F8
3F0000FC
7E0000FC
7E00007E
7C00007E
7C00007E
FC00007E
FC00007E
FC00003E
FC00007E
FC00007E
7C00007E
7C00007E
7E00007E
7E0000FC
3F0000FC
3F0001FC
3F8001F8
1FC003F8
0FE007F0
0FF81FE0
07FFFFC0
03FFFF80
01FFFF00
007FFC00
000FE000
ENDCHAR
STARTCHAR ocircumflex
ENCODING 244
SWIDTH 556 0
DWIDTH 36 0
BBX 31 48 2 -1
BITMAP
0007C000
0007E000
000FF000
001FF800
003EFC00
007E7E00
00FC3F00
01F81F80
03F00F80
03E00780
00000000
00000000
00000000
000FE000
007FFC00
00FFFF00
03FFFF80
07FFFFC0
0FF81FE0
0FE007F0
1FC003F0
3F8001F8
3F0001F8
3F0000FC
7E0000FC
7E00007E
7C00007E
7C00007E
FC00007E
FC00007E
FC00003E
FC00007E
FC00007E
7C00007E
7C00007E
7E00007E
7E0000FC
3F0000FC
3F0001FC
3F8001F8
1FC003F8
0FE007F0
0FF81FE0
07FFFFC0
03FFFF80
01FFFF00
007FFC00
000FE000
ENDCHAR
STARTCHAR otilde
ENCODING 245
SWIDTH 556 0
DWIDTH 36 0
BBX 31 47 2 -1
BITMAP
000000E0
00FF00E0
01FFE1E0
03FFFFC0
03FFFFC0
0787FF80
0700FF00
06000000
00000000
00000000
00000000
00000000
000FE000
007FFC00
00FFFF00
03FFFF80
07FFFFC0
0FF81FE0
0FE007F0
1FC003F0
3F8001F8
3F0001F8
3F0000FC
7E0000FC
7E00007E
7C00007E
7C00007E
FC00007E
FC00007E
FC00003E
FC00007E
FC00007E
7C00007E
7C00007E
7E00007E
7E0000FC
3F0000FC
3F0001FC
3F8001F8
1FC003F8
0FE007F0
0FF81FE0
07FFFFC0
03FFFF80
01FFFF00
007FFC00
000FE000
ENDCHAR
STARTCHAR odieresis
ENCODING 246
SWIDTH 556 0
DWIDTH 36 0
BBX 31 45 2 -1
BITMAP
01E00700
03F00FC0
07F01FC0
07F01FC0
07F01FC0
03F00FC0
01E00780
00000000
00000000
00000000
000FE000
007FFC00
00FFFF00
03FFFF80
07FFFFC0
0FF81FE0
0FE007F0
1FC003F0
3F8001F8
3F0001F8
3F0000FC
7E0000FC
7E00007E
7C00007E
7C00007E
FC00007E
FC00007E
FC00003E
FC00007E
FC00007E
7C00007E
7C00007E
7E00007E
7E0000FC
3F0000FC
3F0001FC
3F8001F8
1FC003F8
0FE007F0
0FF81FE0
07FFFFC0
03FFFF80
01FFFF00
007FFC00
000FE000
ENDCHAR
STARTCHAR divide
ENCODING 247
SWIDTH 600 0
DWIDTH 38 0
BBX 32 36 3 -2
BITMAP
0003E000
0007F000
000FF000
000FF800
000FF800
000FF800
000FF000
0007F000
0003C000
00000000
00000000
00000000
00000000
00000000
00000000
FFFFFFFF
FFFFFFFF
FFFFFFFF
FFFFFFFF
FFFFFFFF
00000000
00000000
00000000
00000000
00000000
00000000
00000000
0003E000
0007F000
000FF000
000FF800
000FF800
000FF800
000FF000
0007F000
0003C000
ENDCHAR
STARTCHAR oslash
ENCODING 248
SWIDTH 556 0
DWIDTH 36 0
BBX 31 46 2 -6
BITMAP
000000C0
000001E0
000001E0
000003E0
000003C0
000007C0
000FE780
007FFF80
00FFFF00
03FFFF80
07FFFFC0
0FF83FE0
0FE03FF0
1FC07FF0
3F807DF8
3F0079F8
3F00F8FC
7E00F0FC
7E01F07C
7C01E07E
7C03E07E
FC03E07E
FC03C07E
FC07C03E
FC07807E
FC0F807E
7C0F007E
7C1F007E
7E1F007E
7E3E00FC
3F3E00FC
3F3C01FC
3FFC01F8
1FF803F8
0FF807F0
0FF81FE0
07FFFFC0
03FFFF80
01FFFF00
03FFFC00
03CFE000
07C00000
07800000
0F800000
0F000000
0F000000
ENDCHAR
STARTCHAR ugrave
ENCODING 249
SWIDTH 556 0
DWIDTH 36 0
BBX 27 47 4 -1
BITMAP
01800000
03E00000
07FC0000
07FF8000
07FFE000
01FFFC00
003FFC00
0003FC00
00007C00
00000000
00000000
00000000
00000000
780001C0
7C0003E0
FC0003E0
FC0003E0
FC0003E0
FC0003E0
FC0003E0
FC0003E0
FC0003E0
FC0003E0
FC0003E0
FC0003E0
FC0003E0
FC0003E0
FC0003E0
FC0003E0
FC0003E0
FC0003E0
FC0003E0
FC0003E0
FC0003E0
FC0007E0
FC0007E0
FC0007E0
FE000FE0
7E000FE0
7F001FE0
7F803FE0
3FE1FFE0
3FFFFFE0
1FFFFBE0
0FFFF1E0
03FFE1C0
00FF0000
ENDCHAR
STARTCHAR uacute
ENCODING 250
SWIDTH 556 0
DWIDTH 36 0
BBX 27 47 4 -1
BITMAP
00001800
0000FC00
0003FC00
001FFC00
00FFFC00
03FFF800
07FF8000
07FC0000
03C00000
00000000
00000000
00000000
00000000
780001C0
7C0003E0
FC0003E0
FC0003E0
FC0003E0
FC0003E0
FC0003E0
FC0003E0
FC0003E0
FC0003E0
FC0003E0
FC0003E0
FC0003E0
FC0003E0
FC0003E0
FC0003E0
FC0003E0
FC0003E0
FC0003E0
FC0003E0
FC0003E0
FC0007E0
FC0007E0
FC0007E0
FE000FE0
7E000FE0
7F001FE0
7F803FE0
3FE1FFE0
3FFFFFE0
1FFFFBE0
0FFFF1E0
03FFE1C0
00FF0000
ENDCHAR
STARTCHAR ucircumflex
ENCODING 251
SWIDTH 556 0
DWIDTH 36 0
BBX 27 47 4 -1
BITMAP
001F0000
001F8000
003FC000
007FE000
00FBF000
01F9F800
03F0FC00
07E07E00
0FC03E00
0F801E00
00000000
00000000
00000000
780001C0
7C0003E0
FC0003E0
FC0003E0
FC0003E0
FC0003E0
FC0003E0
FC0003E0
FC0003E0
FC0003E0
FC0003E0
FC0003E0
FC0003E0
FC0003E0
FC0003E0
FC0003E0
FC0003E0
FC0003E0
FC0003E0
FC0003E0
FC0003E0
FC0007E0
FC0007E0
FC0007E0
FE000FE0
7E000FE0
7F001FE0
7F803FE0
3FE1FFE0
3FFFFFE0
1FFFFBE0
0FFFF1E0
03FFE1C0
00FF0000
ENDCHAR
STARTCHAR udieresis
ENCODING 252
SWIDTH 556 0
DWIDTH 36 0
BBX 27 45 4 -1
BITMAP
07801C00
0FC03F00
1FC07F00
1FC07F00
1FC07F00
0FC03F00
07801E00
00000000
00000000
00000000
00000000
780001C0
7C0003E0
FC0003E0
FC0003E0
FC0003E0
FC0003E0
FC0003E0
FC0003E0
FC0003E0
FC0003E0
FC0003E0
FC0003E0
FC0003E0
FC0003E0
FC0003E0
FC0003E0
FC0003E0
FC0003E0
FC0003E0
FC0003E0
FC0003E0
FC0007E0
FC0007E0
FC0007E0
FE000FE0
7E000FE0
7F001FE0
7F803FE0
3FE1FFE0
3FFFFFE0
1FFFFBE0
0FFFF1E0
03FFE1C0
00FF0000
ENDCHAR
STARTCHAR yacute
ENCODING 253
SWIDTH 500 0
DWIDTH 32 0
BBX 29 59 2 -13
BITMAP
00001800
0000FC00
0003FC00
001FFE00
007FFC00
03FFF800
07FF8000
07FC0000
03C00000
00000000
00000000
00000000
00000000
70000070
F80000F8
F80000F8
F80000F8
FC0001F8
FC0001F8
FC0001F8
FC0001F8
FC0001F8
FC0003F0
7E0003F0
7E0003F0
7E0003E0
3F0007E0
3F0007E0
3F0007E0
1F800FC0
1F800FC0
0F801F80
0FC01F80
0FC01F00
07E03F00
07E03F00
03F07E00
03F0FE00
01F8FC00
01FDF800
00FDF800
007FF000
007FF000
003FE000
001FC000
001FC000
003F8000
003F0000
007F0000
00FE0000
00FC0000
01FC0000
03F80000
07F80000
07F00000
0FE00000
0FC00000
07C00000
07000000
ENDCHAR
STARTCHAR thorn
ENCODING 254
SWIDTH 556 0
DWIDTH 36 0
BBX 29 57 4 -13
BITMAP
70000000
F8000000
F8000000
F8000000
F8000000
F8000000
F8000000
F8000000
F8000000
F8000000
FFF80000
FFFF8000
FFFFE000
FFFFF800
FFFFFC00
F80FFE00
F801FF00
F8007F80
F8001FC0
F8000FE0
F8000FE0
F80007F0
F80003F0
F80003F0
F80001F8
F80001F8
F80001F8
F80001F8
F80001F8
F80001F8
F80001F8
F80001F8
F80001F8
F80001F8
F80003F0
F80007F0
F8000FF0
F8001FE0
F800FFC0
FFFFFFC0
FFFFFF80
FFFFFE00
FFFFF800
FFFFC000
F8000000
F8000000
F8000000
F8000000
F8000000
F8000000
F8000000
F8000000
F8000000
F8000000
F8000000
F8000000
70000000
ENDCHAR
STARTCHAR ydieresis
ENCODING 255
SWIDTH 500 0
DWIDTH 32 0
BBX 29 57 2 -13
BITMAP
07801E00
0FC03F00
0FC03F00
0FE07F00
0FC07F00
0FC03F00
07801E00
00000000
00000000
00000000
00000000
70000070
F80000F8
F80000F8
F80000F8
FC0001F8
FC0001F8
FC0001F8
FC0001F8
FC0001F8
FC0003F0
7E0003F0
7E0003F0
7E0003E0
3F0007E0
3F0007E0
3F0007E0
1F800FC0
1F800FC0
0F801F80
0FC01F80
0FC01F00
07E03F00
07E03F00
03F07E00
03F0FE00
01F8FC00
01FDF800
00FDF800
007FF000
007FF000
003FE000
001FC000
001FC000
003F8000
003F0000
007F0000
00FE0000
00FC0000
01FC0000
03F80000
07F80000
07F00000
0FE00000
0FC00000
07C00000
07000000
ENDCHAR
STARTCHAR .notdef
ENCODING -1
SWIDTH 500 0
DWIDTH 32 0
BBX 32 45 0 0
BITMAP
FFFFFFFF
FFFFFFFF
FFFFFFFF
F800001F
FC00003F
FE00007F
FE00007F
EF0000F7
E78001E7
E78001E7
E3C003C7
E1E00787
E1E00787
E0F00F07
E0781E07
E0781E07
E03C3C07
E01E7807
E01E7807
E00FF007
E007E007
E007E007
E003C007
E007E007
E007E007
E00FF007
E01E7807
E01E7807
E03C3C07
E0781E07
E0781E07
E0F00F07
E1E00787
E1E00787
E3C003C7
E78001E7
E78001E7
EF0000F7
FE00007F
FE00007F
FC00003F
F800001F
FFFFFFFF
FFFFFFFF
FFFFFFFF
ENDCHAR
STARTCHAR quoteright
ENCODING -1
SWIDTH 222 0
DWIDTH 14 0
BBX 10 17 2 28
BITMAP
0780
0FC0
0FC0
0FC0
1FC0
1F80
1F80
3F00
3F00
7E00
7E00
7C00
FC00
F800
F800
F000
6000
ENDCHAR
STARTCHAR quoteleft
ENCODING -1
SWIDTH 222 0
DWIDTH 14 0
BBX 10 17 2 28
BITMAP
7000
F800
FC00
FC00
FC00
FE00
7E00
7E00
3F00
3F00
1F00
1F80
0F80
0FC0
07C0
07C0
0380
ENDCHAR
STARTCHAR fraction
ENCODING -1
SWIDTH 167 0
DWIDTH 11 0
BBX 32 46 -11 -1
BITMAP
00000007
0000000F
0000000F
0000001F
0000003E
0000003E
0000007C
000000F8
000001F8
000001F0
000003E0
000007E0
000007C0
00000F80
00001F80
00001F00
00003E00
00007E00
00007C00
0000F800
0001F800
0001F000
0003E000
0007E000
0007C000
000F8000
001F8000
001F0000
003E0000
007E0000
007C0000
00F80000
01F80000
01F00000
03E00000
07E00000
07C00000
0F800000
1F800000
1F000000
3E000000
7C000000
7C000000
F8000000
F0000000
70000000
ENDCHAR
STARTCHAR florin
ENCODING -1
SWIDTH 611 0
DWIDTH 39 0
BBX 37 58 1 -13
BITMAP
0000001FF0
000000FFF8
000001FFF8
000003FFF8
000007FFF0
00000FF800
00000FC000
00000F8000
00001F8000
00001F0000
00001F0000
00003F0000
00003F0000
00003F0000
00003E0000
00007E0000
00007E0000
007FFFFE00
00FFFFFE00
00FFFFFF00
00FFFFFE00
007FFFFE00
0000FC0000
0000FC0000
0000FC0000
0000FC0000
0000F80000
0000F80000
0001F80000
0001F80000
0001F80000
0001F80000
0001F00000
0001F00000
0003F00000
0003F00000
0003F00000
0003F00000
0003E00000
0003E00000
0003E00000
0007E00000
0007E00000
0007E00000
0007C00000
0007C00000
0007C00000
000FC00000
000F800000
001F800000
001F800000
007F000000
0FFF000000
FFFE000000
FFFC000000
FFF8000000
FFE0000000
7F80000000
ENDCHAR
STARTCHAR quotedblleft
ENCODING -1
SWIDTH 389 0
DWIDTH 25 0
BBX 21 17 1 28
BITMAP
380F00
7C1F80
FC1F80
FE1F80
7E1FC0
7E0FC0
3F0FC0
3F07E0
1F07E0
1F83F0
0F83F0
0FC1F0
0FC1F8
07C0F8
07E0F8
03C078
01C030
ENDCHAR
STARTCHAR guilsinglleft
ENCODING -1
SWIDTH 278 0
DWIDTH 18 0
BBX 10 24 4 4
BITMAP
03C0
07C0
07C0
0FC0
0F80
1F80
1F00
3F00
7E00
7E00
FC00
FC00
FC00
7E00
7E00
3E00
3F00
1F00
1F80
0F80
0FC0
07C0
03C0
0380
ENDCHAR
STARTCHAR guilsinglright
ENCODING -1
SWIDTH 278 0
DWIDTH 18 0
BBX 10 24 4 4
BITMAP
F000
F000
F800
FC00
7C00
7E00
3E00
3F00
1F00
1F80
0FC0
0FC0
0FC0
1F80
1F80
3F00
3E00
7E00
7C00
FC00
F800
F800
F000
6000
ENDCHAR
STARTCHAR fi
ENCODING -1
SWIDTH 500 0
DWIDTH 32 0
BBX 28 44 1 0
BITMAP
001FFF80
00FFFFE0
01FFFFE0
03FFFFF0
07FFFFF0
07F003F0
0FE003E0
0FC001E0
0FC00000
0FC00000
7FFFFFC0
FFFFFFE0
FFFFFFF0
FFFFFFF0
FFFFFFF0
0FC003F0
0FC003F0
0FC003F0
0FC003F0
0FC003F0
0FC003F0
0FC003F0
0FC003F0
0FC003F0
0FC003F0
0FC003F0
0FC003F0
0FC003F0
0FC003F0
0FC003F0
0FC003F0
0FC003F0
0FC003F0
0FC003F0
0FC003F0
0FC003F0
0FC003F0
0FC003F0
0FC003F0
0FC003F0
0FC003F0
0FC003F0
0F8003E0
078001E0
ENDCHAR
STARTCHAR fl
ENCODING -1
SWIDTH 500 0
DWIDTH 32 0
BBX 28 44 1 0
BITMAP
003FFF80
00FFFFE0
03FFFFE0
03FFFFF0
07FFFFF0
07F003F0
0FC003F0
0FC003F0
0FC003F0
0FC003F0
7FFFC3F0
FFFFC3F0
FFFFE3F0
FFFFE3F0
7FFFC3F0
0FC003F0
0FC003F0
0FC003F0
0FC003F0
0FC003F0
0FC003F0
0FC003F0
0FC003F0
0FC003F0
0FC003F0
0FC003F0
0FC003F0
0FC003F0
0FC003F0
0FC003F0
0FC003F0
0FC003F0
0FC003F0
0FC003F0
0FC003F0
0FC003F0
0FC003F0
0FC003F0
0FC003F0
0FC003F0
0FC003F0
0FC003F0
0F8003E0
078001E0
ENDCHAR
STARTCHAR endash
ENCODING -1
SWIDTH 500 0
DWIDTH 32 0
BBX 32 4 0 14
BITMAP
FFFFFFFF
FFFFFFFF
FFFFFFFF
FFFFFFFF
ENDCHAR
STARTCHAR dagger
ENCODING -1
SWIDTH 389 0
DWIDTH 25 0
BBX 20 44 2 0
BITMAP
007000
00F800
00F800
01F800
01F800
01F800
00F800
00F800
00F800
00F800
1CFBC0
7FFFF0
FFFFF0
FFFFF0
7FFFF0
7FFFE0
00F800
00F800
00F800
00F800
00F800
00F800
00F800
00F800
00F800
00F800
00F800
00F800
00F800
00F800
01F800
01F800
01F800
01F800
01FC00
01FC00
01FC00
01FC00
01FC00
01FC00
01FC00
01F800
00F800
00F000
ENDCHAR
STARTCHAR daggerdbl
ENCODING -1
SWIDTH 389 0
DWIDTH 25 0
BBX 20 44 2 0
BITMAP
007000
00F800
00F800
01F800
01F800
01F800
00F800
00F800
00F800
00F800
1CFBC0
7FFFF0
FFFFF0
FFFFF0
7FFFF0
7FFFE0
00F800
00F800
00F800
00F800
00F800
00F800
00F800
00F800
00F800
00F800
00F800
00F800
7FFFE0
7FFFF0
FFFFF0
FFFFF0
7FFFF0
1EFBC0
00F800
00F800
00F800
00F800
01F800
01F800
01F800
00F800
00F800
007000
ENDCHAR
STARTCHAR bullet
ENCODING -1
SWIDTH 500 0
DWIDTH 32 0
BBX 22 22 5 11
BITMAP
00FC00
07FF00
0FFFC0
1FFFE0
3FFFF0
7FFFF0
7FFFF8
7FFFF8
FFFFFC
FFFFFC
FFFFFC
FFFFFC
FFFFFC
FFFFFC
7FFFF8
7FFFF8
7FFFF8
3FFFF0
1FFFE0
0FFFC0
07FF80
00FC00
ENDCHAR
STARTCHAR quotesinglbase
ENCODING -1
SWIDTH 222 0
DWIDTH 14 0
BBX 10 17 2 -8
BITMAP
0780
0FC0
0FC0
0FC0
1FC0
1F80
1F80
3F00
3F00
7E00
7E00
7C00
FC00
F800
F800
F000
6000
ENDCHAR
STARTCHAR quotedblbase
ENCODING -1
SWIDTH 389 0
DWIDTH 25 0
BBX 21 17 1 -8
BITMAP
038070
07C0F8
07E1F8
0FE1F8
0FC1F8
0FC3F0
1F83F0
1F83F0
1F07E0
3F07E0
3E07C0
7E0FC0
7E0F80
7C1F80
FC1F00
781F00
300E00
ENDCHAR
STARTCHAR quotedblright
ENCODING -1
SWIDTH 389 0
DWIDTH 25 0
BBX 21 17 1 28
BITMAP
038070
07C0F8
07E1F8
0FE1F8
0FC1F8
0FC3F0
1F83F0
1F83F0
1F07E0
3F07E0
3E07C0
7E0FC0
7E0F80
7C1F80
FC1F00
781F00
300E00
ENDCHAR
STARTCHAR ellipsis
ENCODING -1
SWIDTH 1000 0
DWIDTH 64 0
BBX 48 7 8 -1
BITMAP
700003C0001E
F80007E0001F
FC0007E0003F
FC0007E0003F
FC0007E0003F
F80007E0001F
700003C0001E
ENDCHAR
STARTCHAR perthousand
ENCODING -1
SWIDTH 1000 0
DWIDTH 64 0
BBX 64 46 0 -1
BITMAP
01F8000700000000
07FE000F00000000
0FFF800F80000000
1FFFC01F00000000
3FFFC01F00000000
7E07E03E00000000
7C03E03E00000000
FC01F07C00000000
F801F07C00000000
F801F0F800000000
F801F0F800000000
F800F0F800000000
F801F1F000000000
F801F1F000000000
F801F3E000000000
7C03F3E000000000
7E07E7C000000000
7F0FE7C000000000
3FFFCF8000000000
1FFF8F8000000000
0FFF1F0000000000
03FE1F0000000000
00603E0000000000
00003E0180000600
00007E0FF8007FC0
00007C3FFC00FFF0
00007C7FFE01FFF8
0000F8FFFF03FFFC
0000F8FC3F87F0FC
0001F1F80F87C07E
0001F1F00FCFC03E
0003E3E007CF801F
0003E3E007CF801F
0007C3E007CF801F
0007C3E003CF001F
000F83E003CF001F
000F83E007CF801F
001F03E007CF801F
001F03F007CF803F
001F01F00F87C03E
003E01F81F87E07E
003E00FFFF03FFFC
007C007FFF03FFF8
007C003FFE01FFF0
0078001FF8007FE0
00300007E0001F80
ENDCHAR
STARTCHAR circumflex
ENCODING -1
SWIDTH 222 0
DWIDTH 14 0
BBX 19 10 -2 36
BITMAP
01F000
03F800
07F800
0FFC00
1FBE00
3F3F00
7E1F80
FC0FC0
F807E0
F001E0
ENDCHAR
STARTCHAR tilde
ENCODING -1
SWIDTH 222 0
DWIDTH 14 0
BBX 22 8 -4 37
BITMAP
00000C
1FE01C
3FFC3C
7FFFF8
7FFFF8
F0FFF0
E01FE0
C00000
ENDCHAR
STARTCHAR breve
ENCODING -1
SWIDTH 222 0
DWIDTH 14 0
BBX 18 9 -2 36
BITMAP
C000C0
E000C0
E001C0
F003C0
7E1F80
3FFF80
3FFF00
0FFE00
03F800
ENDCHAR
STARTCHAR dotaccent
ENCODING -1
SWIDTH 222 0
DWIDTH 14 0
BBX 7 7 4 37
BITMAP
78
FC
FC
FE
FC
FC
78
ENDCHAR
STARTCHAR ring
ENCODING -1
SWIDTH 222 0
DWIDTH 14 0
BBX 14 13 0 36
BITMAP
07C0
1FE0
3FF0
7878
7038
703C
F01C
703C
7038
7878
3FF0
1FE0
07C0
ENDCHAR
STARTCHAR hungarumlaut
ENCODING -1
SWIDTH 222 0
DWIDTH 14 0
BBX 25 15 -4 33
BITMAP
00E00E00
01F01F00
03F83F80
03F03F00
07E07F00
0FE0FE00
0FC1FC00
1F81F800
3F03F000
3E07E000
7C0FC000
FC0F8000
F81F0000
F01E0000
600C0000
ENDCHAR
STARTCHAR ogonek
ENCODING -1
SWIDTH 222 0
DWIDTH 14 0
BBX 17 13 -2 -12
BITMAP
000300
007C00
03E000
0F8000
3E0000
7C0000
780000
F80100
FC0780
FE3F00
7FFE00
3FF800
1FC000
ENDCHAR
STARTCHAR caron
ENCODING -1
SWIDTH 222 0
DWIDTH 14 0
BBX 19 10 -2 36
BITMAP
F003E0
FC07C0
7E0FC0
3E1F80
1F3F00
1FFE00
0FFC00
07F800
03F000
00E000
ENDCHAR
STARTCHAR emdash
ENCODING -1
SWIDTH 1000 0
DWIDTH 64 0
BBX 64 4 0 14
BITMAP
FFFFFFFFFFFFFFFF
FFFFFFFFFFFFFFFF
FFFFFFFFFFFFFFFF
FFFFFFFFFFFFFFFF
ENDCHAR
STARTCHAR Lslash
ENCODING -1
SWIDTH 444 0
DWIDTH 28 0
BBX 31 44 -2 0
BITMAP
00F00000
01F80000
01F80000
01F80000
01F80000
01F80000
01F80000
01F80000
01F80000
01F80000
01F80000
01F80000
01F80000
01F80000
01F80000
01F81000
01F8F800
01FFF800
01FFF800
01FFE000
03FF8000
1FFC0000
7FF80000
FFF80000
7FF80000
71F80000
01F80000
01F80000
01F80000
01F80000
01F80000
01F80000
01F80000
01F80000
01F80000
01F80000
01F80000
01F80000
01F80000
01FFFFFC
01FFFFFC
01FFFFFE
01FFFFFC
00FFFFF8
ENDCHAR
STARTCHAR OE
ENCODING -1
SWIDTH 1000 0
DWIDTH 64 0
BBX 60 46 2 -1
BITMAP
0001FF0000000000
000FFFE03FFFFFE0
003FFFF87FFFFFF0
00FFFFFC7FFFFFF0
01FFFFFE7FFFFFF0
03FFF3FF7FFFFFE0
07FF007FFE000000
0FF8001FFE000000
0FF0000FFE000000
1FE00007FE000000
3FC00007FE000000
3F800003FFFFFFC0
3F800001FFFFFFE0
7F000001FFFFFFE0
7F000000FFFFFFE0
7E000000FFFFFFE0
FE000000FE000000
FE000000FE000000
FC0000007E000000
FC0000007E000000
FC0000007E000000
FC0000007E000000
FC0000007E000000
FC0000007E000000
FC0000007E000000
FC0000007E000000
FE0000007E000000
FE000000FE000000
FE000000FE000000
7E000000FE000000
7F000000FE000000
7F000001FE000000
7F000001FE000000
3F800003FE000000
3F800003FE000000
1FC00007FE000000
1FE0000FFE000000
0FF0001FFE000000
0FF8003FFE000000
07FC007FFE000000
03FFC7FF7FFFFFE0
01FFFFFE7FFFFFF0
00FFFFFC7FFFFFF0
003FFFF87FFFFFF0
000FFFE01FFFFFE0
0003FF0000000000
ENDCHAR
STARTCHAR dotlessi
ENCODING -1
SWIDTH 222 0
DWIDTH 14 0
BBX 6 33 4 0
BITMAP
78
7C
FC
FC
FC
FC
FC
FC
FC
FC
FC
FC
FC
FC
FC
FC
FC
FC
FC
FC
FC
FC
FC
FC
FC
FC
FC
FC
FC
FC
FC
7C
78
ENDCHAR
STARTCHAR lslash
ENCODING -1
SWIDTH 222 0
DWIDTH 14 0
BBX 17 44 -1 0
BITMAP
03C000
03E000
07E000
07E000
07E000
07E000
07E000
07E000
07E000
07E000
07E000
07E000
07E000
07E300
07FF80
07FF80
07FF00
07FE00
1FF800
7FE000
FFE000
FFE000
FFE000
07E000
07E000
07E000
07E000
07E000
07E000
07E000
07E000
07E000
07E000
07E000
07E000
07E000
07E000
07E000
07E000
07E000
07E000
07E000
03E000
03C000
ENDCHAR
STARTCHAR oe
ENCODING -1
SWIDTH 944 0
DWIDTH 60 0
BBX 56 35 2 -1
BITMAP
000FE00007F800
007FFC003FFF00
00FFFF00FFFFC0
03FFFF81FFFFE0
07FFFFC3FFFFF0
07F81FE7FC07F8
0FE007FFF001F8
1FC003FFC000FC
1F8001FFC000FE
3F0001FF80007E
3F0000FF00007E
7E0000FF00003E
7E00007F00003F
7C00007E00003F
7C00007FFFFFFF
FC00007FFFFFFF
FC00007FFFFFFF
FC00007FFFFFFE
FC00007E000000
FC00007E000000
7C00007E000000
7C00007E000000
7E00007F000000
7E0000FF000000
3F0000FF000000
3F0001FF800000
3F8001FFC00000
1FC003FFE00000
0FE007FFF80000
0FF01FE7FFFFFE
07FFFFC3FFFFFF
03FFFF81FFFFFF
01FFFF007FFFFF
007FFC000FFFFE
000FF000000000
ENDCHAR
STARTCHAR trademark
ENCODING -1
SWIDTH 990 0
DWIDTH 63 0
BBX 56 26 4 18
BITMAP
FFFFF83FC000FF
FFFFF83FC000FF
FFFFF83FE001FF
FFFFF83FE001FF
00F8003FF003FF
00F8003FF003FF
00F8003EF003DF
00F8003EF807DF
00F8003EF807DF
00F8003E7C079F
00F8003E7C0F9F
00F8003E3C0F1F
00F8003E3E1F1F
00F8003E3E1F1F
00F8003E1F1E1F
00F8003E1F3E1F
00F8003E0F3C1F
00F8003E0FFC1F
00F8003E0FFC1F
00F8003E07F81F
00F8003E07F81F
00F8003E07F01F
00F8003E03F01F
00F8003E03F01F
00F8003E01E01F
00F8003E01E01F
ENDCHAR
STARTCHAR minus
ENCODING -1
SWIDTH 600 0
DWIDTH 38 0
BBX 32 5 3 14
BITMAP
FFFFFFFF
FFFFFFFF
FFFFFFFF
FFFFFFFF
FFFFFFFF
ENDCHAR
STARTCHAR Scaron
ENCODING -1
SWIDTH 611 0
DWIDTH 39 0
BBX 35 56 2 0
BITMAP
00F001E000
00FC03E000
007E07C000
003F0F8000
001F1F8000
000FBF0000
000FFE0000
0007FC0000
0003F80000
0001F00000
0000000000
0000000000
01FFFFF000
0FFFFFF800
1FFFFFF800
3FFFFFF800
7FFFFFF800
7FC0000000
7E00000000
FE00000000
FC00000000
FC00000000
FE00000000
7F80000000
7FF8000000
3FFFF80000
3FFFFF8000
0FFFFFF000
03FFFFFC00
007FFFFE00
00007FFF00
000003FF80
0000007F80
0000003FC0
0000001FC0
0000000FC0
0000000FE0
00000007E0
00000007E0
00000007E0
00000007E0
00000007E0
00000007E0
0000000FC0
0000000FC0
0000000FC0
0000001F80
0000003F80
0000007F00
000001FF00
00001FFE00
7FFFFFFC00
FFFFFFF800
FFFFFFE000
FFFFFF8000
7FFFFC0000
ENDCHAR
STARTCHAR Ydieresis
ENCODING -1
SWIDTH 556 0
DWIDTH 36 0
BBX 32 54 2 0
BITMAP
00E00380
01F007C0
03F80FE0
03F80FE0
03F80FE0
01F807C0
00E00380
00000000
00000000
00000000
7000001E
F800001F
FC00003F
FC00003F
FC00007F
FE00007E
7E00007E
7E0000FE
7F0000FC
3F0001FC
3F8001F8
1F8003F8
1FC007F0
0FE007E0
07F00FE0
07F81FC0
03F83F80
01FE7F80
00FFFF00
007FFE00
003FFC00
001FF800
000FF000
0007E000
0007E000
0007E000
0007E000
0007E000
0007E000
0007E000
0007E000
0007E000
0007E000
0007E000
0007E000
0007E000
0007E000
0007E000
0007E000
0007E000
0007E000
0007E000
0007C000
00038000
ENDCHAR
STARTCHAR Zcaron
ENCODING -1
SWIDTH 500 0
DWIDTH 32 0
BBX 28 56 2 0
BITMAP
07800F00
07E01F00
03F03F00
01F87E00
00FCFC00
007DF800
003FF000
001FE000
001FC000
000F8000
00000000
00000000
1FFFFF80
3FFFFFC0
3FFFFFE0
3FFFFFE0
3FFFFFE0
000007E0
000007E0
000007E0
000007E0
00000FC0
00000FC0
00001FC0
00001F80
00003F80
00007F00
00007F00
0000FE00
0001FE00
0003FC00
0007F800
000FF000
001FE000
003FC000
007F8000
00FF0000
01FE0000
03FC0000
07F80000
0FF00000
0FE00000
1FC00000
3FC00000
3F800000
7F000000
7E000000
7E000000
FC000000
FC000000
FC000000
FFFFFFE0
FFFFFFF0
FFFFFFF0
7FFFFFF0
3FFFFFE0
ENDCHAR
STARTCHAR scaron
ENCODING -1
SWIDTH 500 0
DWIDTH 32 0
BBX 28 47 2 0
BITMAP
07800E00
0FC03F00
07E07E00
03F0FC00
01F9F800
00F9F000
007FE000
003FC000
001F8000
000F0000
00000000
00000000
00000000
00000000
03FFFF00
0FFFFF80
1FFFFF80
3FFFFF80
7FFFFF80
7E000000
7C000000
7C000000
7E000000
7FC00000
7FFE0000
3FFFF800
1FFFFF00
0FFFFF80
01FFFFC0
0007FFE0
00001FE0
000007F0
000003F0
000003F0
000001F0
000001F0
000001F0
000001F0
000003F0
000003E0
000007E0
00003FE0
7FFFFFC0
FFFFFF80
FFFFFF00
FFFFFE00
7FFFF000
ENDCHAR
STARTCHAR zcaron
ENCODING -1
SWIDTH 444 0
DWIDTH 28 0
BBX 26 47 1 0
BITMAP
0F001E00
0FC03E00
07E07C00
03E0F800
01F1F800
00FBF000
007FE000
007FC000
003F8000
001F0000
00000000
00000000
00000000
00000000
1FFFFF00
3FFFFF80
3FFFFFC0
3FFFFFC0
1FFFFFC0
00000F80
00000F80
00001F80
00003F00
00007F00
0001FE00
0003FC00
0007F800
000FF000
001FE000
003FC000
007F8000
00FF0000
03FE0000
07FC0000
0FF00000
1FE00000
1FC00000
3F800000
7F000000
7E000000
7E000000
FC000000
FFFFFF80
FFFFFFC0
FFFFFFC0
7FFFFFC0
3FFFFF80
ENDCHAR
STARTCHAR Delta
ENCODING -1
SWIDTH 707 0
DWIDTH 45 0
BBX 41 45 2 0
BITMAP
00007F000000
00007F000000
00007F800000
0000FF800000
0000FFC00000
0001F7C00000
0001F7E00000
0003E7E00000
0003E3E00000
0003E3F00000
0007C1F00000
0007C1F80000
000F81F80000
000F80F80000
000F80FC0000
001F007C0000
001F007E0000
003E003E0000
003E003F0000
007E003F0000
007C001F0000
007C001F8000
00F8000F8000
00F8000FC000
01F0000FC000
01F00007C000
03F00007E000
03E00003E000
03E00003F000
07C00001F000
07C00001F800
0F800001F800
0F800000F800
1F800000FC00
1F0000007C00
1F0000007E00
3E0000007E00
3E0000003F00
7E0000003F00
7C0000001F00
7C0000001F80
FFFFFFFFFF80
FFFFFFFFFF80
FFFFFFFFFF80
FFFFFFFFFF80
ENDCHAR
STARTCHAR Omega
ENCODING -1
SWIDTH 795 0
DWIDTH 51 0
BBX 44 44 3 0
BITMAP
00003FE00000
0003FFFE0000
000FFFFF8000
003FFFFFC000
007FE03FF000
00FF0007F800
01FC0001FC00
03F80000FE00
07F000007F00
0FE000003F00
0FC000001F80
1F8000001F80
1F8000000FC0
1F0000000FC0
3F00000007E0
3F00000007E0
3E00000007E0
3E00000003E0
7E00000003E0
7E00000003E0
7E00000003E0
7E00000003E0
7E00000003E0
7E00000003E0
3E00000003E0
3E00000003E0
3E00000003E0
3E00000007C0
1F00000007C0
1F00000007C0
1F0000000F80
0F8000000F80
0F8000000F00
07C000001F00
03E000003E00
03E000003C00
01F000007800
00F80000F000
007C0001E000
001E0003C000
FFFF800FFFF0
FFFF801FFFF0
FFFF801FFFF0
FFFF801FFFF0
ENDCHAR
STARTCHAR pi
ENCODING -1
SWIDTH 621 0
DWIDTH 40 0
BBX 37 32 1 0
BITMAP
1FFFFFFFF8
FFFFFFFFF8
FFFFFFFFF8
FFFFFFFFF8
F0F8003E00
00F8003E00
00F8003E00
00F8003E00
00F8003E00
00F8003E00
00F8003E00
00F8003E00
01F8003E00
01F0003E00
01F0003E00
01F0003E00
01F0003E00
01F0003E00
01F0003E00
03F0003E00
03E0003E00
03E0003E00
03E0003E00
03E0003E00
07E0003E00
07C0003E00
07C0003E00
07C0003F00
0FC0003F00
0F80003F00
0F80001F00
1F80001F00
ENDCHAR
STARTCHAR Euro
ENCODING -1
SWIDTH 611 0
DWIDTH 39 0
BBX 37 45 3 -1
BITMAP
00007FFFC0
0003FFFFE0
000FFFFFE0
001FFFFFE0
003FFFFFE0
007FF80000
00FF800000
00FE000000
01FC000000
01F8000000
03F8000000
03F0000000
1FFFFF8000
7FFFFFE000
FFFFFFF000
FFFFFFE000
7FFFFFE000
07E0000000
07E0000000
07E0000000
07E0000000
1FFFFF8000
7FFFFFE000
FFFFFFF000
FFFFFFE000
7FFFFFE000
01F0000000
01F8000000
01F8000000
00FC000000
00FE000000
007E000000
007F000000
003F800000
003FC00000
001FF00000
000FF80000
0007FE0000
0003FFC000
0001FFFC00
0000FFFFF0
00003FFFF8
00000FFFF8
000003FFF0
0000007FE0
ENDCHAR
STARTCHAR estimated
ENCODING -1
SWIDTH 844 0
DWIDTH 54 0
BBX 50 46 2 -1
BITMAP
00000FFC000000
0000FC1FC00000
0003C000F00000
000F00003C0000
003C00000F0000
00780000078000
00F0000003C000
01E0000000E000
03C0000000F000
07800000007800
0F800000007C00
1F800000007C00
1F800000007E00
3F800000007E00
3F800000007F00
3F800000007F00
7F800000007F80
7F800000007F80
7F800000007F80
FF800000007F80
FF800000007FC0
FF800000007FC0
FF800000007FC0
FFFFFFFFFFFFC0
FF800000000000
FF800000000000
FF800000000000
FF800000000000
7F800000000000
7F800000000000
7F800000000000
3F800000000000
3F800000000000
1F800000000000
1F800000000000
0F800000000000
07800000000000
07800000007000
03C0000000E000
01E0000001C000
00780000038000
003C00000F0000
000F00003C0000
0007C000F00000
0000FC0FC00000
00000FFC000000
ENDCHAR
STARTCHAR partialdiff
ENCODING -1
SWIDTH 592 0
DWIDTH 38 0
BBX 31 49 3 0
BITMAP
007FC000
03FFF000
0FFFFC00
3FFFFF00
1FC0FF80
1E003FC0
08000FC0
000007E0
000003F0
000001F0
000001F8
000000F8
000000FC
0000007C
0000007C
0000007C
0000003E
0000003E
0000003E
003FC03E
00FFF83E
03FFFC3E
07FFFE3E
0FF03FBE
1FC007BE
3F8003FE
3F0001FE
7E0000FE
7C00007E
FC00007E
FC00007E
F800007E
F800007C
F800007C
F800007C
F80000FC
F80000F8
F80001F8
FC0001F0
7C0003F0
7C0003E0
7E0007E0
3F000FC0
3F803F80
1FE0FF00
0FFFFE00
07FFFC00
01FFF000
003F8000
ENDCHAR
STARTCHAR product
ENCODING -1
SWIDTH 758 0
DWIDTH 49 0
BBX 45 49 2 -6
BITMAP
FFFFFFFFFFF8
FFFFFFFFFFF8
FFFFFFFFFFF8
FFFFFFFFFFF8
FFFFFFFFFFF8
01F80000F800
01F80000F800
01F80000F800
01F80000F800
01F80000F800
01F80000F800
01F80000F800
01F80000F800
01F80000F800
01F80000F800
01F80000F800
01F80000F800
01F80000F800
01F80000F800
01F80000F800
01F80000F800
01F80000F800
01F80000F800
01F80000F800
01F80000F800
01F80000F800
01F80000F800
01F80000F800
01F80000F800
01F80000F800
01F80000F800
01F80000F800
01F80000F800
01F80000F800
01F80000F800
01F80000F800
01F80000F800
01F80000F800
01F80000F800
01F80000F800
01F80000F800
01F80000F800
01F80000F800
01F80000F800
01F80000F800
01F80000F800
01F80000F800
01F80000F800
01F80000F800
ENDCHAR
STARTCHAR summation
ENCODING -1
SWIDTH 601 0
DWIDTH 38 0
BBX 36 49 1 -6
BITMAP
7FFFFFFFE0
7FFFFFFFE0
7FFFFFFFE0
7FFFFFFFE0
3F80000000
1F80000000
0FC0000000
07E0000000
07F0000000
03F8000000
01FC000000
00FE000000
007E000000
003F000000
003F800000
001FC00000
000FE00000
0007F00000
0003F00000
0001F80000
0000FC0000
0000FE0000
00007F0000
00003F8000
00001F8000
00003F0000
00007E0000
0000FC0000
0000F80000
0001F00000
0003E00000
0007E00000
000FC00000
001F800000
003F000000
007E000000
007C000000
00F8000000
01F0000000
03F0000000
07E0000000
0FC0000000
1F80000000
3F00000000
3FFFFFFFF0
7FFFFFFFF0
FFFFFFFFF0
FFFFFFFFF0
FFFFFFFFF0
ENDCHAR
STARTCHAR uni2219
ENCODING -1
SWIDTH 305 0
DWIDTH 20 0
BBX 7 7 6 13
BITMAP
38
7E
FE
FE
FE
7E
3C
ENDCHAR
STARTCHAR radical
ENCODING -1
SWIDTH 612 0
DWIDTH 39 0
BBX 37 60 2 -9
BITMAP
0000000078
0000000078
0000000078
0000000078
00000000F0
00000000F0
00000000F0
00000000F0
00000001E0
00000001E0
00000001E0
00000001E0
00000003C0
00000003C0
00000003C0
00000003C0
0000000780
0000000780
0000000780
0000000780
0000000F00
0000000F00
0000000F00
0000000E00
0000001E00
0000001E00
0000001E00
0040001C00
03C0003C00
0FC0003C00
7FE0003C00
FFE0003800
79F0007800
41F0007800
01F0007800
00F8007000
00F800F000
007C00F000
007C00F000
007C00E000
003E01E000
003E01E000
001E01E000
001F01C000
001F03C000
000F83C000
000F83C000
000F838000
0007C78000
0007C78000
0003C78000
0003E70000
0003EF0000
0001EF0000
0001FF0000
0000FE0000
0000FE0000
0000FE0000
00007E0000
00007C0000
ENDCHAR
STARTCHAR infinity
ENCODING -1
SWIDTH 810 0
DWIDTH 52 0
BBX 45 20 3 8
BITMAP
01FC0000FE00
07FF0003FF80
0FFFC007FFC0
1F07E01F83E0
3C01F03E00F0
780078780070
78003CF00078
70001FE00038
F0000FC00038
F00007800038
F00007800038
F0000FC00038
70001FE00038
78003CF00078
7800787C0070
3C01F03E00F0
1F07E01F83E0
0FFFC00FFFC0
07FF0003FF80
01FC0000FE00
ENDCHAR
STARTCHAR integral
ENCODING -1
SWIDTH 373 0
DWIDTH 24 0
BBX 22 63 1 -10
BITMAP
0000F0
0003FC
000FFC
001FF8
003F00
003E00
007C00
007C00
007C00
007800
007800
00F800
00F800
00F800
00F800
00F800
00F800
00F800
00F800
00F800
00F800
00F800
00F800
00F800
00F800
00F800
007800
007800
007800
007800
007800
007800
007800
007800
007800
007800
007800
007C00
007C00
007C00
007C00
007C00
007C00
007C00
007C00
007C00
007C00
007C00
007C00
007C00
007C00
007C00
007800
007800
00F800
00F800
00F000
01F000
83F000
FFE000
FFC000
FF8000
7E0000
ENDCHAR
STARTCHAR approxequal
ENCODING -1
SWIDTH 605 0
DWIDTH 39 0
BBX 32 19 3 8
BITMAP
03F80002
0FFE0007
1FFF8007
3E0FE01E
7803F83E
F000FFFC
60003FF0
20000FE0
00000000
00000000
00000000
01F80002
0FFE0007
1FFF8007
3F1FE00F
7803F83E
7000FFFC
E0003FF8
20000FE0
ENDCHAR
STARTCHAR notequal
ENCODING -1
SWIDTH 605 0
DWIDTH 39 0
BBX 32 31 3 2
BITMAP
00000700
00000700
00000E00
00000E00
00001E00
00001C00
00003C00
FFFFFFFF
FFFFFFFF
FFFFFFFF
00007000
0000E000
0000E000
0001C000
0001C000
00038000
00038000
00078000
00070000
000F0000
FFFFFFFF
FFFFFFFF
FFFFFFFF
001C0000
00380000
00380000
00700000
00700000
00F00000
00E00000
00600000
ENDCHAR
STARTCHAR lessequal
ENCODING -1
SWIDTH 605 0
DWIDTH 39 0
BBX 32 39 3 -1
BITMAP
00000001
00000007
0000001F
0000007F
000001FE
000007F8
00001FE0
00007F00
0003FC00
000FF000
003FC000
00FF0000
03F80000
0FE00000
3F800000
7E000000
78000000
7C000000
7F000000
1FE00000
07F80000
01FE0000
003F8000
000FE000
0003FC00
0000FF00
00003FC0
00000FF0
000003FC
000000FF
0000003F
00000007
00000001
00000000
00000000
00000000
FFFFFFFF
FFFFFFFF
FFFFFFFF
ENDCHAR
STARTCHAR greaterequal
ENCODING -1
SWIDTH 605 0
DWIDTH 39 0
BBX 31 38 4 -1
BITMAP
E0000000
F8000000
FE000000
7F800000
1FE00000
07F80000
00FE0000
003F8000
000FF000
0003FC00
0000FF00
00003FC0
000007F0
000001FC
0000007E
0000001E
0000003E
000000FE
000007F8
00001FE0
00007F80
0001FC00
0007F000
003FC000
00FF0000
03FC0000
0FF00000
3FC00000
FF000000
F8000000
E0000000
80000000
00000000
00000000
00000000
FFFFFFFE
FFFFFFFE
FFFFFFFE
ENDCHAR
STARTCHAR lozenge
ENCODING -1
SWIDTH 613 0
DWIDTH 39 0
BBX 32 49 4 -3
BITMAP
0007C000
0007E000
000FE000
000FF000
001EF000
003EF800
003C7800
007C7C00
00783E00
00F83E00
00F01F00
01F01F00
03E00F80
03C00780
07C007C0
078003C0
0F8003E0
0F0001F0
1F0001F0
3E0000F8
3E0000F8
7C00007C
7800003C
F800003E
F000001F
F800003E
7C00003C
7C00007C
3E000078
3E0000F8
1F0001F0
0F0001F0
0F8003E0
078003C0
07C007C0
03E00780
03E00F80
01F00F00
00F01F00
00F83E00
00783C00
007C7C00
003C7800
003EF800
001EF000
001FF000
000FE000
0007C000
0007C000
ENDCHAR
STARTCHAR uni02C9
ENCODING -1
SWIDTH 222 0
DWIDTH 14 0
BBX 18 4 -2 39
BITMAP
FFFFC0
FFFFC0
FFFFC0
7FFFC0
ENDCHAR
STARTCHAR uni03A9
ENCODING -1
SWIDTH 795 0
DWIDTH 51 0
BBX 44 44 3 0
BITMAP
00003FE00000
0003FFFE0000
000FFFFF8000
003FFFFFC000
007FE03FF000
00FF0007F800
01FC0001FC00
03F80000FE00
07F000007F00
0FE000003F00
0FC000001F80
1F8000001F80
1F8000000FC0
1F0000000FC0
3F00000007E0
3F00000007E0
3E00000007E0
3E00000003E0
7E00000003E0
7E00000003E0
7E00000003E0
7E00000003E0
7E00000003E0
7E00000003E0
3E00000003E0
3E00000003E0
3E00000003E0
3E00000007C0
1F00000007C0
1F00000007C0
1F0000000F80
0F8000000F80
0F8000000F00
07C000001F00
03E000003E00
03E000003C00
01F000007800
00F80000F000
007C0001E000
001E0003C000
FFFF800FFFF0
FFFF801FFFF0
FFFF801FFFF0
FFFF801FFFF0
ENDCHAR
STARTCHAR afii61289
ENCODING -1
SWIDTH 528 0
DWIDTH 34 0
BBX 30 48 2 0
BITMAP
0007E000
001FF800
003FFC00
007FFE00
00FC1F00
01F80F00
01F00F00
03F00780
03E00780
03E00780
03E00780
03E00780
03C00780
07C00780
07C00F00
07C00F00
07C00F00
07C01E00
07C01E00
07C03C00
07C07C00
07C07800
07C0F000
07C1F000
07C3E000
07C7C000
07CF8000
07DF0000
07FE0000
07FC0000
07F80000
07F00000
07E00000
0FC00000
3FC00000
7FC00000
FFE00000
73E00000
63E00018
03E0003C
03F0007C
01F800F8
01FC01F0
00FF0FE0
00FFFFC0
007FFF80
001FFE00
0007F800
ENDCHAR
STARTCHAR uni03BC
ENCODING -1
SWIDTH 556 0
DWIDTH 36 0
BBX 27 47 4 -14
BITMAP
780001C0
7C0003E0
FC0003E0
FC0003E0
FC0003E0
FC0003E0
FC0003E0
FC0003E0
FC0003E0
FC0003E0
FC0003E0
FC0003E0
FC0003E0
FC0003E0
FC0003E0
FC0003E0
FC0003E0
FC0003E0
FC0003E0
FC0003E0
FC0003E0
FC0007E0
FC0007E0
FC0007E0
FE000FE0
FE000FE0
FF001FE0
FF803FE0
FFE1FFE0
FFFFFFE0
FFFFFBE0
FFFFF1E0
FFFFE1C0
FCFF0000
FC000000
FC000000
FC000000
FC000000
FC000000
FC000000
FC000000
FC000000
FC000000
FC000000
FC000000
7C000000
78000000
ENDCHAR
STARTCHAR uni2215
ENCODING -1
SWIDTH 167 0
DWIDTH 11 0
BBX 32 46 -11 -1
BITMAP
00000007
0000000F
0000000F
0000001F
0000003E
0000003E
0000007C
000000F8
000001F8
000001F0
000003E0
000007E0
000007C0
00000F80
00001F80
00001F00
00003E00
00007E00
00007C00
0000F800
0001F800
0001F000
0003E000
0007E000
0007C000
000F8000
001F8000
001F0000
003E0000
007E0000
007C0000
00F80000
01F80000
01F00000
03E00000
07E00000
07C00000
0F800000
1F800000
1F000000
3E000000
7C000000
7C000000
F8000000
F0000000
70000000
ENDCHAR
ENDFONT
